<svg width="65" height="48" viewBox="0 0 65 48" fill="none" xmlns="http://www.w3.org/2000/svg">
<path d="M31.7867 0C41.3792 0 50.9717 0 60.5767 0C60.6269 0.0376176 60.677 0.0752351 60.7397 0.0877743C63.0219 0.714734 64.0626 2.05643 64.0626 4.42633C64.0626 17.4922 64.0626 30.558 64.0626 43.6238C64.0626 46.3448 62.42 47.9875 59.7115 47.9875C40.3009 47.9875 20.8777 47.9875 1.467 48C0.814959 48 0.33847 47.837 0.0124512 47.2602C0.0124512 47.0972 0.0124512 46.9216 0.0124512 46.7586C0.325931 46.1818 0.814959 46.0063 1.467 46.0188C3.72405 46.0564 5.96856 46.0313 8.22562 46.0313C8.45132 46.0313 8.66449 46.0313 8.92781 46.0313C8.63941 43.7367 8.36355 41.5549 8.08769 39.373C7.97483 38.5329 8.36355 38.0439 9.21621 38.0313C10.5454 38.0188 11.8871 38.0313 13.2162 38.0313C13.4795 38.0313 13.7429 38.0313 14.0187 38.0313C14.0563 37.0157 14.2695 36.0878 13.7679 35.1975C13.6049 35.2226 13.4545 35.2351 13.3165 35.2727C9.26637 36.1254 5.50461 33.4044 5.06574 29.3292C4.97797 28.5141 5.39176 28.0251 6.19427 28.0502C8.06261 28.1003 9.81809 28.5392 11.4356 29.4796C12.9027 30.3323 14.0689 31.4984 14.9842 33.0031C15.0971 32.8276 15.1723 32.7147 15.235 32.5893C16.9278 28.9404 19.6864 26.4702 23.4858 25.1411C24.3259 24.8527 24.9404 25.2288 24.9905 26.1317C25.0908 27.6991 24.8526 29.2163 24.0877 30.5956C22.5704 33.3417 20.2131 34.7461 17.0783 34.8715C16.84 34.884 16.4388 34.9843 16.4137 35.1097C16.2005 36.0502 16.0626 37.0031 15.8871 38.0439C16.2758 38.0439 16.5015 38.0439 16.7272 38.0439C18.1065 38.0439 19.4858 38.0313 20.8526 38.0439C21.63 38.0564 22.0563 38.5078 21.9811 39.21C21.8933 39.9498 21.793 40.7022 21.6927 41.442C21.5046 42.9467 21.3165 44.4514 21.1284 45.9937C24.4513 45.9937 27.7366 45.9937 31.0595 45.9937C31.0595 45.6803 31.0595 45.4169 31.0595 45.1411C31.0595 30.5705 31.0595 16 31.0469 1.42947C31.0469 0.802508 31.2099 0.31348 31.7867 0ZM35.0595 46.0188C35.0595 45.7053 35.0595 45.4295 35.0595 45.1661C35.0595 33.2665 35.0595 21.3668 35.0595 9.46708C35.0595 8.31348 35.3479 8.02508 36.4889 8.02508C42.8463 8.02508 49.2037 8.02508 55.5736 8.02508C56.7523 8.02508 57.0407 8.30094 57.0407 9.5047C57.0407 21.4044 57.0407 33.3041 57.0407 45.2038C57.0407 45.4671 57.0407 45.7304 57.0407 46.0439C58.0313 46.0439 58.9466 46.0439 59.862 46.0439C61.2915 46.0439 62.094 45.2414 62.094 43.7868C62.094 30.5956 62.094 17.4044 62.094 4.21317C62.094 2.77116 61.2915 1.96865 59.8494 1.96865C51.1347 1.96865 42.42 1.96865 33.7052 1.96865C33.4921 1.96865 33.2664 1.96865 33.0657 1.96865C33.0657 16.7147 33.0657 31.348 33.0657 46.0188C33.7178 46.0188 34.3447 46.0188 35.0595 46.0188ZM45.0532 10.0188C42.3447 10.0188 39.7115 10.0188 37.0532 10.0188C37.0532 22.0313 37.0532 34.0063 37.0532 45.9937C39.7366 45.9937 42.3949 45.9937 45.0532 45.9937C45.0532 33.9812 45.0532 22.0188 45.0532 10.0188ZM55.0469 46.0188C55.0469 33.9812 55.0469 22.0063 55.0469 10.0188C52.3636 10.0188 49.7303 10.0188 47.0846 10.0188C47.0846 22.0439 47.0846 34.0313 47.0846 46.0188C49.7554 46.0188 52.3761 46.0188 55.0469 46.0188ZM10.8588 46.0188C13.6802 46.0188 16.4012 46.0188 19.1723 46.0188C19.4231 44.0251 19.6739 42.0439 19.9247 40.0502C16.6269 40.0502 13.3918 40.0502 10.119 40.0502C10.3698 42.069 10.6081 44.0251 10.8588 46.0188ZM22.9717 27.511C21.0783 27.9373 17.6551 31.2226 17.3667 32.8777C20.0626 33.0031 23.0344 30.1693 22.9717 27.511ZM7.24756 30.069C7.74913 32.4138 11.0093 34.2445 12.84 33.2665C11.4356 31.4232 9.57985 30.4326 7.24756 30.069Z" fill="black"/>
<path d="M0 1.75593C0.31348 1.17912 0.802508 1.01611 1.45455 1.01611C9.84326 1.02865 18.2194 1.02865 26.6081 1.02865C27.7116 1.02865 28.0125 1.32959 28.0125 2.44558C28.0125 8.15091 28.0125 13.8688 28.0125 19.5741C28.0125 20.6901 27.7116 20.991 26.6081 20.991C18.2194 20.991 9.84326 20.991 1.45455 21.0036C0.802508 21.0036 0.326019 20.8406 0 20.2638C0 14.0945 0 7.9252 0 1.75593ZM16.8777 13.6556C16.9781 13.6556 17.0784 13.6556 17.1787 13.6556C17.3292 13.455 17.442 13.2293 17.6176 13.0537C19.0972 11.5616 20.5893 10.0694 22.0815 8.58978C22.7837 7.88759 23.1097 7.86251 23.9122 8.46439C24.5893 8.96596 25.2665 9.48006 26.0063 10.0318C26.0063 7.61172 26.0063 5.31705 26.0063 3.02238C17.9812 3.02238 10.0188 3.02238 2.03135 3.02238C2.03135 8.37661 2.03135 13.6932 2.03135 19.0475C3.72414 19.0475 5.36677 19.0349 7.02194 19.06C7.46081 19.0725 7.76176 18.9346 8.0627 18.6337C10.069 16.6023 12.0878 14.5961 14.1191 12.5772C14.8213 11.875 15.2602 11.875 15.9624 12.5898C16.2759 12.9033 16.5643 13.292 16.8777 13.6556ZM10.6081 18.9973C15.7241 18.9973 20.8652 18.9973 26.0564 18.9973C26.0564 16.8782 26.069 14.7967 26.0439 12.7152C26.0439 12.5522 25.8683 12.3515 25.7179 12.2387C25.0282 11.6995 24.3009 11.2105 23.6364 10.6462C23.2351 10.3076 23.0094 10.3829 22.6708 10.734C21.1285 12.3139 19.5611 13.8688 17.9937 15.4236C17.2539 16.1634 16.8401 16.1634 16.1003 15.4362C15.7492 15.0976 15.3981 14.7465 15.1223 14.4707C13.5549 16.0381 12.0878 17.5177 10.6081 18.9973Z" fill="black"/>
<path d="M46.0187 5.98105C45.4169 5.98105 44.815 5.99359 44.2006 5.98105C43.5109 5.96852 43.0595 5.55472 43.072 4.99046C43.0846 4.43873 43.5234 4.03748 44.1629 4.03748C45.4169 4.02494 46.6582 4.02494 47.9122 4.03748C48.5642 4.05002 49.0031 4.43873 49.0156 4.99046C49.0281 5.55472 48.5767 5.96852 47.8871 5.98105C47.2727 5.99359 46.6457 5.98105 46.0187 5.98105Z" fill="black"/>
<path d="M59.5235 19.661C59.1724 19.661 58.8213 19.6861 58.4702 19.661C58.1442 19.6359 58.0188 19.4604 58.2069 19.1595C58.5454 18.6328 58.8714 18.1187 59.2351 17.6046C59.4608 17.2786 59.7116 17.3037 59.9373 17.6171C60.2758 18.1062 60.6144 18.6077 60.9404 19.1093C61.1536 19.4353 61.0282 19.6234 60.6645 19.6359C60.2884 19.6485 59.9247 19.6359 59.5486 19.6359C59.5235 19.6485 59.5235 19.6485 59.5235 19.661Z" fill="black"/>
<path d="M59.6112 22.3826C59.9247 22.3826 60.2382 22.3701 60.5517 22.3826C61.0532 22.4077 61.141 22.5707 60.8651 23.0096C60.5767 23.461 60.2633 23.9124 59.9623 24.3638C59.7115 24.74 59.4482 24.7651 59.1974 24.3763C58.8839 23.9124 58.5579 23.4484 58.2695 22.972C58.0062 22.5456 58.094 22.3952 58.6206 22.3701C58.9592 22.3575 59.2852 22.3701 59.6238 22.3701C59.6112 22.3701 59.6112 22.3701 59.6112 22.3826Z" fill="black"/>
<path d="M8.02512 12.978C5.85584 12.9905 4.03766 11.1849 4.03766 9.0156C4.02512 6.84632 5.83077 5.02814 8.00004 5.02814C10.1693 5.0156 11.975 6.82124 11.9875 8.99052C12 11.1598 10.1944 12.978 8.02512 12.978ZM8.00004 11.0344C9.11603 11.0344 10.0189 10.1441 10.0314 9.02814C10.0439 7.89961 9.16619 6.99679 8.0502 6.98425C6.8966 6.97172 5.98124 7.862 5.98124 9.0156C5.98124 10.1316 6.88406 11.0219 8.00004 11.0344Z" fill="black"/>
</svg>
