<svg width="58" height="55" viewBox="0 0 58 55" fill="none" xmlns="http://www.w3.org/2000/svg">
<path d="M8.14945 54.2989C7.93247 54.2418 7.70406 54.2075 7.48707 54.139C6.33362 53.7736 5.54561 53.0198 5.28294 51.8207C4.74619 49.2968 4.22085 46.7729 3.71835 44.2376C3.51279 43.2212 4.17517 42.4446 5.22584 42.4332C5.80828 42.4217 6.40214 42.4332 7.09878 42.4332C6.996 41.9649 6.9389 41.5424 6.81327 41.1427C6.05953 38.8586 4.36931 37.5567 2.21087 36.7458C1.99388 36.6659 1.74263 36.643 1.57133 36.5174C1.3315 36.3461 1.00031 36.0949 1.00031 35.8779C0.988888 35.6609 1.29724 35.3069 1.53707 35.2155C2.90751 34.7244 4.33505 34.5417 5.79686 34.7815C5.88822 34.7929 5.97959 34.8044 6.16231 34.6902C5.49993 34.142 4.86039 33.571 4.16375 33.057C3.64983 32.6802 3.04455 32.4061 2.53064 32.0178C2.32507 31.8693 2.13092 31.5267 2.15376 31.2983C2.17661 31.1042 2.49638 30.8187 2.71336 30.773C4.90607 30.3733 7.00742 30.5446 8.82326 31.9835C9.49706 32.5089 9.99955 33.2398 10.6048 33.9021C10.6391 33.8565 10.7419 33.7537 10.8218 33.6281C13.0716 30.556 16.6234 30.4989 19.4099 31.7323C19.6155 31.8236 19.8667 32.1777 19.8325 32.3718C19.7982 32.6002 19.5127 32.8743 19.2729 32.9771C18.2793 33.4339 17.2515 33.8336 16.2465 34.2676C16.0752 34.3361 15.9267 34.4617 15.744 34.5759C16.6234 34.7358 17.4456 34.8729 18.2679 35.0328C18.4506 35.067 18.679 35.0784 18.8047 35.1926C19.0331 35.3868 19.33 35.638 19.3528 35.8779C19.3643 36.072 19.0559 36.3689 18.8161 36.4946C17.7997 37.0313 16.6919 37.4196 15.744 38.0477C14.4535 38.9043 13.6769 40.1948 13.3457 41.7251C13.3 41.9307 13.2886 42.1362 13.2544 42.4217C14.0195 42.4217 14.7276 42.4217 15.4471 42.4217C16.7033 42.4217 17.2972 43.1298 17.0573 44.3632C16.5777 46.7615 16.0866 49.1598 15.5955 51.558C15.2986 53.0427 14.4307 53.9449 12.9232 54.2075C12.8546 54.219 12.7861 54.2647 12.7176 54.2875C11.1873 54.2989 9.66836 54.2989 8.14945 54.2989ZM15.8468 43.8036C15.6869 43.7579 15.6184 43.7237 15.5384 43.7237C12.1466 43.7237 8.74331 43.7237 5.35147 43.7122C4.98601 43.7122 4.96317 43.8835 5.0317 44.1805C5.53419 46.5902 6.01385 49.0113 6.51634 51.421C6.73333 52.4374 7.37287 52.9399 8.41212 52.9513C9.73689 52.9627 11.0731 52.9627 12.3978 52.9513C13.4485 52.9399 14.088 52.4146 14.305 51.3639C14.6933 49.5138 15.0702 47.6523 15.4471 45.7907C15.5841 45.1284 15.7212 44.466 15.8468 43.8036ZM4.83755 31.8693C5.46567 32.3947 6.04811 32.783 6.48208 33.2854C7.45281 34.3932 8.35502 35.5695 9.25723 36.7344C9.50848 37.0542 9.48564 37.431 9.13161 37.6823C8.80042 37.9107 8.48064 37.8079 8.2294 37.511C8.14945 37.431 8.08093 37.3397 8.00099 37.2597C6.89321 36.1862 5.53419 35.8893 4.0267 36.0378C6.52776 37.4539 8.04667 39.521 8.41212 42.3989C9.58842 42.3989 10.7419 42.3989 11.9068 42.3989C12.2608 39.5095 13.8025 37.4653 16.2808 36.0378C15.173 35.9121 14.168 36.0606 13.2201 36.5745C12.8546 36.7687 12.5006 36.8943 12.2037 36.506C11.8953 36.0949 12.1237 35.7751 12.4435 35.4667C13.6655 34.3019 15.0359 33.3654 16.5548 32.6459C16.6805 32.5888 16.7832 32.5089 16.9431 32.4175C15.1501 31.9378 13.1059 32.7144 11.9182 34.3247C11.5984 34.7701 11.3814 35.284 11.0616 35.7294C10.9132 35.935 10.6277 36.1634 10.4221 36.152C10.2165 36.1405 9.98813 35.8779 9.81683 35.6723C9.71404 35.5581 9.6912 35.3525 9.6341 35.2041C8.76615 33.1256 7.19014 32.052 4.83755 31.8693Z" fill="black" stroke="black" stroke-width="0.3"/>
<path d="M48.6119 34.0391C48.6119 37.7621 48.6119 41.371 48.6119 45.0712C48.806 45.0712 48.9888 45.0712 49.1715 45.0712C50.3821 45.0712 51.604 45.0712 52.8146 45.0712C53.4085 45.0712 53.6254 45.2767 53.6254 45.8363C53.6369 48.3602 53.6369 50.8841 53.6254 53.408C53.6254 54.0019 53.4085 54.196 52.7689 54.196C49.7882 54.196 46.8075 54.196 43.8268 54.196C35.7526 54.196 27.6784 54.196 19.6156 54.196C19.4215 54.196 19.1931 54.2646 19.056 54.1732C18.8162 54.0247 18.4736 53.7735 18.4736 53.5679C18.4736 53.3624 18.8048 53.0997 19.0446 52.9398C19.1816 52.8484 19.41 52.917 19.6042 52.917C30.2594 52.917 40.9146 52.917 51.5698 52.917C51.8096 52.917 52.0494 52.917 52.3349 52.917C52.3349 50.7243 52.3349 48.5772 52.3349 46.3388C52.118 46.3388 51.901 46.3388 51.684 46.3388C48.3378 46.3388 45.0031 46.3388 41.6569 46.3388C40.709 46.3388 40.5834 46.2018 40.5834 45.2425C40.5834 42.5815 40.5834 39.9206 40.5834 37.2711C40.5834 37.0541 40.5834 36.8257 40.5834 36.5402C40.2865 36.5402 40.0695 36.5402 39.8525 36.5402C36.2437 36.5402 32.6348 36.5402 29.026 36.5402C28.158 36.5402 28.0096 36.3803 28.0096 35.5009C28.0096 32.8057 28.021 30.1105 28.021 27.4153C28.021 27.2097 28.021 27.0042 28.021 26.7301C27.7697 26.7301 27.5756 26.7301 27.37 26.7301C23.7612 26.7301 20.1524 26.7301 16.5435 26.7301C15.5956 26.7301 15.47 26.6045 15.47 25.6337C15.47 22.9614 15.47 20.2776 15.47 17.6052C15.47 17.3996 15.47 17.1941 15.47 16.9657C13.2773 16.9657 11.1417 16.9657 8.92615 16.9657C8.92615 17.2055 8.92615 17.4339 8.92615 17.6509C8.92615 20.9171 8.92615 24.1833 8.92615 27.4496C8.92615 27.6209 8.93757 27.7922 8.91473 27.9635C8.88047 28.3518 8.6749 28.6259 8.27519 28.6259C7.87548 28.6259 7.66991 28.3632 7.62423 27.9749C7.61281 27.8607 7.61281 27.7465 7.61281 27.6323C7.61281 23.9892 7.61281 20.3347 7.61281 16.6916C7.61281 15.835 7.78412 15.6637 8.64064 15.6637C9.53143 15.6637 10.4222 15.6637 11.3587 15.6637C11.3587 12.8201 11.3587 9.99924 11.3587 7.12131C10.388 7.12131 9.42865 7.14415 8.45792 7.12131C7.06463 7.07563 5.89976 6.11632 5.56857 4.78014C5.23737 3.45538 5.84265 2.02783 7.08747 1.41113C7.57855 1.17131 8.17241 1.03426 8.72058 1.02284C11.6214 0.98858 14.5335 1.01142 17.4343 1C18.3479 1 19.1131 1.33119 19.8212 1.92505C30.3051 10.7301 40.8004 19.5238 51.2843 28.3175C52.9973 29.7565 54.7332 31.1726 56.4234 32.6458C57.9994 34.0163 57.8167 36.426 56.0808 37.5223C54.9274 38.2532 53.5455 38.139 52.4377 37.214C51.2957 36.2661 50.1651 35.3182 49.0345 34.3589C48.9202 34.2675 48.806 34.1876 48.6119 34.0391ZM13.0946 2.31334C11.5528 2.31334 10.0225 2.30192 8.48076 2.32476C7.63565 2.33618 6.96185 2.95288 6.81338 3.76373C6.66492 4.55173 7.13315 5.39684 7.92116 5.67093C8.21809 5.77371 8.54928 5.79655 8.86905 5.79655C11.3701 5.80797 13.8826 5.78513 16.3836 5.81939C16.7263 5.81939 17.1488 5.95644 17.4115 6.17342C27.9867 15.0128 38.5506 23.8636 49.1144 32.7258C50.5077 33.9021 51.901 35.0784 53.3057 36.2318C54.0823 36.8714 55.2129 36.78 55.8181 36.0605C56.4348 35.3182 56.3549 34.3246 55.5897 33.6166C55.407 33.4452 55.2129 33.2968 55.0301 33.1369C50.4163 29.2654 45.8025 25.4053 41.1887 21.5338C33.7883 15.3326 26.3993 9.14272 19.0103 2.94146C18.485 2.49607 17.9368 2.2905 17.2516 2.30192C15.8697 2.33618 14.4764 2.31334 13.0946 2.31334ZM16.7491 25.4282C19.1245 25.4282 21.4314 25.4282 23.7498 25.4282C23.7612 25.3025 23.7726 25.2112 23.7726 25.1198C23.7726 21.2711 23.784 17.4111 23.7612 13.5624C23.7612 13.3568 23.6242 13.0827 23.4643 12.9457C21.2601 11.0842 19.056 9.23408 16.8405 7.38398C16.7148 7.2812 16.555 7.13273 16.4179 7.13273C15.1959 7.10989 13.9625 7.12131 12.7406 7.12131C12.7406 9.99924 12.7406 12.7972 12.7406 15.6523C13.6999 15.6523 14.6135 15.6523 15.5385 15.6523C16.6692 15.6523 16.7491 15.7323 16.7491 16.84C16.7491 19.4781 16.7491 22.1162 16.7491 24.7544C16.7491 24.9713 16.7491 25.1997 16.7491 25.4282ZM35.5584 35.2382C35.5699 35.0784 35.5927 34.9642 35.5927 34.8614C35.5927 31.0698 35.6041 27.2668 35.5813 23.4753C35.5813 23.2354 35.3985 22.9385 35.2158 22.7786C31.9953 20.0606 28.7633 17.354 25.5314 14.6588C25.4172 14.556 25.2801 14.4874 25.1088 14.3618C25.1088 18.0963 25.1088 21.7508 25.1088 25.4624C26.1481 25.4624 27.153 25.4624 28.158 25.4624C29.2201 25.4624 29.3115 25.5652 29.3115 26.6501C29.3001 29.2882 29.2887 31.9263 29.2887 34.5644C29.2887 34.7814 29.2887 35.0098 29.2887 35.2497C31.4014 35.2382 33.4457 35.2382 35.5584 35.2382ZM36.9175 24.2062C36.9175 27.9521 36.9175 31.5837 36.9175 35.2611C38.1623 35.2611 39.3728 35.2611 40.5834 35.2611C41.8282 35.2611 41.8853 35.3182 41.8853 36.5858C41.8853 39.2011 41.8853 41.8278 41.8853 44.4431C41.8853 44.6372 41.8853 44.8428 41.8853 45.0255C43.7354 45.0255 45.4941 45.0255 47.2871 45.0255C47.2986 44.8885 47.3214 44.7742 47.3214 44.6715C47.3214 40.8685 47.3328 37.0769 47.31 33.2739C47.31 33.057 47.1501 32.7714 46.9788 32.623C43.9867 30.0991 40.9945 27.5866 37.991 25.0741C37.6484 24.8115 37.3172 24.5374 36.9175 24.2062Z" fill="black" stroke="black" stroke-width="0.3"/>
<path d="M48.7717 13.7569C46.4419 13.7569 44.1007 13.7569 41.771 13.7569C40.6518 13.7569 40.1721 13.2658 40.1721 12.1694C40.1721 8.98315 40.1721 5.79687 40.1721 2.59917C40.1721 1.53708 40.6746 1.01174 41.7367 1.01174C46.4876 1.00032 51.227 1.00032 55.9779 1.01174C57.0286 1.01174 57.5196 1.5485 57.5196 2.62201C57.5196 5.80829 57.5196 8.99457 57.5196 12.1923C57.5196 13.2658 57.0286 13.7683 55.9551 13.7683C53.5568 13.7569 51.1699 13.7569 48.7717 13.7569ZM56.2063 2.34792C51.2841 2.34792 46.3962 2.34792 41.474 2.34792C41.474 3.66126 41.474 4.94034 41.474 6.26511C41.6339 6.26511 41.7595 6.26511 41.8852 6.26511C44.7517 6.208 47.3898 6.80186 49.5482 8.83469C49.651 8.92605 49.9137 8.91463 50.0736 8.86895C51.0329 8.59486 51.9694 8.19515 52.9515 8.02384C54.0022 7.82969 55.0871 7.84112 56.1949 7.76117C56.2063 6.00244 56.2063 4.1866 56.2063 2.34792ZM46.4076 12.4549C47.1728 11.4385 47.8238 10.5477 48.4976 9.64553C47.2413 8.1152 43.5183 7.213 41.4969 7.68123C41.4969 9.26866 41.4969 10.8561 41.4969 12.4549C43.2214 12.4549 44.9116 12.4549 46.4076 12.4549ZM47.9951 12.3065C48.0407 12.3407 48.0864 12.3864 48.1207 12.4207C50.8159 12.4207 53.5111 12.4207 56.2063 12.4207C56.2063 11.3243 56.2063 10.2622 56.2063 9.1773C53.6938 8.99457 51.3412 9.32576 49.3084 10.8904C48.8059 11.2786 48.429 11.8382 47.9951 12.3065Z" fill="black" stroke="black" stroke-width="0.3"/>
<path d="M50.2564 3.92327C50.9302 3.93469 51.4669 4.50571 51.4555 5.17951C51.4441 5.85331 50.8731 6.40149 50.1993 6.39007C49.5255 6.37865 48.9773 5.79621 48.9887 5.12241C49.0115 4.46003 49.5826 3.91185 50.2564 3.92327Z" fill="black" stroke="black" stroke-width="0.3"/>
</svg>
