<svg width="70" height="61" viewBox="0 0 70 61" fill="none" xmlns="http://www.w3.org/2000/svg">
<path d="M0.109131 7.07416C0.187731 6.77548 0.250611 6.46108 0.329211 6.16239C0.879412 3.97731 2.76582 2.43675 5.0295 2.34243C5.37534 2.32671 5.70546 2.32671 6.0513 2.32671C17.6055 2.32671 29.1597 2.32671 40.714 2.31099C41.3428 2.31099 42.003 2.15379 42.6004 1.94943C50.256 -0.69154 57.5187 -0.109898 64.1997 4.66899C67.0765 6.72832 69.0572 9.49504 69.7489 13.032C70.6606 17.7166 69.0415 21.6309 65.6931 24.8535C64.7027 25.8124 63.5552 26.5984 62.3919 27.353C61.826 27.7146 61.6373 28.0761 61.6531 28.7206C61.6845 34.3641 61.6531 40.0076 61.6688 45.6511C61.6688 47.8991 60.7727 49.6283 58.6977 50.5558C57.9117 50.9016 56.9842 51.0274 56.1196 51.0274C50.1617 51.0588 44.2038 51.0431 38.2459 51.0431C37.9158 51.0431 37.57 51.0431 37.177 51.0431C37.177 53.5111 37.177 55.932 37.177 58.4629C37.4442 58.4629 37.7114 58.4629 37.9944 58.4629C39.7708 58.4629 41.5471 58.4629 43.3235 58.4629C44.1409 58.4629 44.5811 58.7931 44.5968 59.4061C44.6125 60.0349 44.1881 60.4122 43.3864 60.4122C35.1019 60.4122 26.8175 60.4122 18.533 60.4122C17.7313 60.4122 17.2911 60.0507 17.2911 59.4376C17.2911 58.8245 17.747 58.4787 18.5487 58.4787C20.5766 58.4787 22.6202 58.4787 24.7267 58.4787C24.7267 56.0106 24.7267 53.6054 24.7267 51.0588C24.4437 51.0588 24.1451 51.0588 23.8464 51.0588C17.9199 51.0588 11.9778 51.0588 6.0513 51.0588C2.65578 51.0588 1.02089 49.7698 0.234891 46.4843C0.219171 46.4057 0.172011 46.3428 0.140571 46.2642C0.109131 33.2008 0.109131 20.1375 0.109131 7.07416ZM38.1359 4.29171C37.6643 4.29171 37.4442 4.29171 37.2084 4.29171C26.7074 4.29171 16.1907 4.29171 5.68974 4.29171C3.36318 4.29171 2.15273 5.51787 2.15273 7.82872C2.15273 18.3611 2.15273 28.8936 2.15273 39.426C2.15273 39.7089 2.15273 39.9919 2.15273 40.2749C21.3783 40.2749 40.5096 40.2749 59.6409 40.2749C59.6409 36.4392 59.6409 32.6507 59.6409 28.8464C59.4837 28.8621 59.3894 28.8621 59.2951 28.8936C55.4279 30.3555 51.4508 30.7485 47.3478 30.1512C47.0649 30.104 46.6719 30.2455 46.4361 30.4341C44.8169 31.7232 43.2606 33.0594 41.6257 34.3327C41.2799 34.5999 40.6668 34.8357 40.3367 34.71C40.0066 34.5685 39.7393 33.9711 39.6607 33.531C39.4092 32.0061 39.1577 30.4813 39.0948 28.9407C39.0319 27.5416 38.4346 26.677 37.3342 25.8282C34.2059 23.4073 32.2409 20.2318 31.9736 16.2075C31.7064 12.0417 33.4199 8.64616 36.391 5.81655C36.894 5.32923 37.4442 4.88907 38.1359 4.29171ZM41.4685 31.9432C42.9305 30.7328 44.2824 29.6638 45.5872 28.5477C46.0902 28.1076 46.609 28.029 47.2378 28.0918C48.8412 28.2333 50.4604 28.4534 52.0796 28.3748C56.5598 28.1862 60.6627 26.8185 64.0268 23.7531C67.2337 20.8292 68.7742 17.2136 67.6581 12.8434C66.8092 9.47932 64.577 7.07416 61.6688 5.31351C57.4401 2.73543 52.8184 1.96515 47.9609 2.62539C44.0781 3.14415 40.5411 4.55895 37.68 7.30996C34.5832 10.2968 33.1841 13.8967 34.3474 18.1725C35.1805 21.2693 37.2241 23.5173 39.8651 25.2308C40.431 25.6081 40.7611 26.0325 40.824 26.7242C40.9969 28.4062 41.2327 30.0883 41.4685 31.9432ZM59.6881 42.3813C40.4625 42.3813 21.3312 42.3813 2.15273 42.3813C2.15273 43.4189 2.15273 44.3778 2.15273 45.3367C2.15273 47.9305 3.28458 49.0781 5.86266 49.0781C22.5573 49.0781 39.2677 49.0781 55.9624 49.0781C56.1982 49.0781 56.434 49.0781 56.6698 49.0781C58.3204 48.9995 59.5937 47.789 59.6723 46.1384C59.7352 44.9123 59.6881 43.6861 59.6881 42.3813ZM35.0548 51.1217C32.2566 51.1217 29.5213 51.1217 26.8175 51.1217C26.8175 53.6054 26.8175 56.0106 26.8175 58.4158C29.5999 58.4158 32.3195 58.4158 35.0548 58.4158C35.0548 55.9635 35.0548 53.574 35.0548 51.1217Z" fill="#111111"/>
<path d="M19.5237 32.6349C18.5648 32.6349 18.1089 31.9747 18.3447 31.3144C18.4076 31.1258 18.5333 30.9371 18.6434 30.7642C21.4416 26.1111 24.2397 21.458 27.0222 16.8048C27.1479 16.6005 27.258 16.3018 27.4309 16.2546C27.8239 16.1446 28.3269 16.0188 28.6256 16.1917C28.8771 16.3332 28.94 16.8677 29.0029 17.245C29.0343 17.4179 28.8457 17.6223 28.7356 17.7952C25.9375 22.4798 23.1236 27.1486 20.3097 31.8175C20.0896 32.1947 19.7123 32.462 19.5237 32.6349Z" fill="#111111"/>
<path d="M28.1538 32.635C26.3146 32.635 24.8369 31.1416 24.8369 29.2867C24.8526 27.4317 26.3303 25.9697 28.1853 25.9697C30.0245 25.9697 31.5022 27.4789 31.5022 29.3181C31.4865 31.1731 29.9931 32.635 28.1538 32.635ZM28.201 27.9347C27.4779 27.919 26.8334 28.5164 26.8019 29.2395C26.7705 29.9626 27.3521 30.6071 28.091 30.6386C28.877 30.67 29.5058 30.0884 29.5215 29.3024C29.5215 28.5635 28.9398 27.9505 28.201 27.9347Z" fill="#111111"/>
<path d="M19.1931 15.9873C21.0481 15.9873 22.5258 17.4493 22.5415 19.2885C22.5572 21.1278 21.0638 22.6212 19.2246 22.6212C17.3539 22.6212 15.8762 21.1592 15.8762 19.3042C15.8448 17.465 17.3382 15.9873 19.1931 15.9873ZM19.2403 17.9366C18.5172 17.9209 17.8884 18.5182 17.8412 19.2414C17.8098 19.9959 18.4386 20.6562 19.2089 20.6562C19.9477 20.6562 20.5451 20.0588 20.5451 19.3042C20.5608 18.5654 19.9791 17.9523 19.2403 17.9366Z" fill="#111111"/>
<path d="M60.3011 14.3997C61.1185 15.4844 61.9202 16.5533 62.722 17.6066C63.115 18.1411 63.2093 18.6598 62.6591 19.1314C62.2032 19.5401 61.6058 19.3829 61.1185 18.7699C60.9456 18.5498 60.7727 18.314 60.5997 18.0782C60.0967 17.4179 59.5937 16.7577 59.0435 16.0346C58.3361 16.9778 57.6758 17.8424 57.0156 18.707C56.5283 19.3358 55.9781 19.493 55.475 19.1471C54.9405 18.7699 54.9248 18.2039 55.4279 17.5123C56.1981 16.4747 56.9841 15.4372 57.7859 14.384C56.9841 13.3307 56.2139 12.3089 55.4593 11.2871C54.9248 10.5797 54.9405 10.0452 55.4436 9.63651C55.9466 9.24351 56.4968 9.38499 57.0313 10.0767C57.6758 10.9256 58.3203 11.7744 59.0435 12.7334C59.6094 11.9788 60.1596 11.2714 60.6941 10.5483C60.8827 10.2968 61.0556 10.0452 61.2757 9.80944C61.653 9.38499 62.1246 9.27495 62.5962 9.62079C63.0992 9.98236 63.1778 10.5011 62.832 10.9884C62.2032 11.8845 61.5272 12.7491 60.867 13.6294C60.6783 13.8652 60.4897 14.1167 60.3011 14.3997Z" fill="#111111"/>
<path d="M54.7208 18.487C54.5322 18.6914 54.3435 19.1158 54.0449 19.2101C53.7462 19.3045 53.3217 19.1158 52.9759 19.0058C52.8659 18.9743 52.7558 18.77 52.7244 18.6285C52.52 17.2923 51.624 17.1194 50.5236 17.2766C50.4764 17.2766 50.4135 17.2923 50.3664 17.2766C49.3131 17.0722 48.6843 17.4181 48.4171 18.5342C48.2442 19.2573 47.6625 19.4931 47.0966 19.273C46.5464 19.0529 46.342 18.5185 46.6093 17.8268C47.5997 15.2801 48.5743 12.7178 49.6275 10.1869C49.7533 9.87245 50.2092 9.51089 50.5236 9.49517C50.838 9.47945 51.341 9.80957 51.4668 10.1083C52.5515 12.7335 53.5575 15.3902 54.5951 18.0311C54.6422 18.1097 54.6579 18.2198 54.7208 18.487ZM50.555 13.1265C50.2563 13.9282 50.0048 14.557 49.7376 15.2644C50.3507 15.2644 50.8065 15.2644 51.3725 15.2644C51.1052 14.5413 50.8537 13.9125 50.555 13.1265Z" fill="#111111"/>
<path d="M42.4432 11.6171C41.9088 11.6171 41.4843 11.6171 41.0756 11.6171C40.4311 11.6014 40.0066 11.2713 39.9909 10.6267C39.9752 10.0137 40.3839 9.65209 40.9813 9.63637C42.6004 9.60493 44.2196 9.60493 45.8388 9.63637C46.4361 9.65209 46.8448 9.98221 46.8448 10.611C46.8448 11.2713 46.4204 11.5857 45.7916 11.6014C45.3829 11.6171 44.9584 11.6014 44.4554 11.6014C44.4397 11.9158 44.424 12.183 44.4082 12.466C44.4082 14.2895 44.4082 16.113 44.4082 17.9523C44.4082 18.8169 44.0467 19.2728 43.4179 19.2728C42.7891 19.2728 42.4432 18.8169 42.4432 17.9523C42.4432 15.8772 42.4432 13.8022 42.4432 11.6171Z" fill="#111111"/>
</svg>
