<svg width="65" height="65" viewBox="0 0 65 65" fill="none" xmlns="http://www.w3.org/2000/svg">
<path d="M63.9753 44.7848C63.6671 43.7614 63.2725 42.7873 62.4341 42.0598C60.4242 40.3213 57.5267 40.5802 55.8374 42.664C54.2345 44.6368 54.6537 47.5961 56.7622 49.1497C56.8855 49.2483 57.0211 49.3346 57.1567 49.4333C56.7622 49.7785 56.3676 50.0744 56.047 50.432C53.8276 52.861 54.925 56.856 58.0815 57.7931C58.5131 57.9164 58.6734 58.089 58.661 58.5329C58.6364 59.8029 58.6487 61.0606 58.6487 62.3676C56.2566 62.3676 53.9262 62.3676 51.5342 62.3676C51.5342 62.084 51.5342 61.8251 51.5342 61.5662C51.5342 50.284 51.5342 39.0143 51.5342 27.7321C51.5342 26.5114 51.3616 26.3388 50.1532 26.3388C48.3283 26.3388 46.5035 26.3388 44.6786 26.3388C44.4813 26.3388 44.284 26.3388 44.0128 26.3388C44.0128 26.0306 44.0128 25.7963 44.0128 25.5497C44.0128 20.3463 44.0128 15.1307 44.0128 9.92734C44.0128 8.75598 43.8278 8.57102 42.6688 8.57102C40.5357 8.57102 38.4025 8.57102 36.2694 8.57102C36.0475 8.57102 35.8255 8.57102 35.5419 8.57102C35.5419 7.89286 35.5419 7.27635 35.5419 6.67217C35.5419 5.11857 35.5419 3.55264 35.5419 1.99903C35.5419 1.38253 35.246 1.01262 34.7775 1.00029C34.2843 0.987959 33.9637 1.3702 33.9637 2.01136C33.9513 4.16915 33.9637 6.3146 33.9637 8.54636C33.7171 8.55869 33.5075 8.58335 33.2855 8.58335C31.177 8.58335 29.0563 8.58335 26.9478 8.58335C25.9737 8.58335 25.7518 8.8053 25.7518 9.77938C25.7518 11.7029 25.7518 13.6387 25.7518 15.5622C25.7518 15.7842 25.7518 16.0061 25.7518 16.339C25.4558 16.2281 25.2462 16.1418 25.0243 16.0554C21.6828 14.6375 18.3537 13.2195 15.0245 11.8015C13.8531 11.3083 13.4339 11.5796 13.4339 12.8496C13.4339 29.0515 13.4339 45.2533 13.4339 61.4429C13.4339 61.7265 13.4339 62.01 13.4339 62.3553C11.0788 62.3553 8.76077 62.3553 6.39337 62.3553C6.36871 62.2443 6.33172 62.1087 6.33172 61.9731C6.33172 60.7894 6.31939 59.5933 6.34405 58.4096C6.34405 58.2247 6.51668 57.9164 6.66464 57.8794C8.56349 57.3122 9.73485 56.0669 10.0308 54.1311C10.3267 52.1829 9.53757 50.6539 7.89766 49.5689C7.873 49.5442 7.86067 49.4949 7.84834 49.4579C11.0542 47.2015 10.339 43.8107 8.7731 42.2448C6.94823 40.4322 3.89035 40.5185 2.17645 42.4051C0.585856 44.1683 0.302263 47.4604 3.2985 49.4579C3.15054 49.5812 3.00257 49.6799 2.86694 49.7908C1.42431 50.9252 0.75848 52.4048 1.07906 54.2174C1.39965 56.0546 2.5217 57.2383 4.28491 57.8424C4.46987 57.9041 4.75346 58.1137 4.75346 58.2617C4.79045 59.6057 4.77812 60.962 4.77812 62.4169C3.96433 62.4169 3.19986 62.4169 2.43538 62.4169C2.21344 62.4169 1.95451 62.3553 1.76956 62.4416C1.49829 62.5772 1.09139 62.8115 1.07906 63.0088C1.06673 63.3294 1.338 63.6623 1.48596 63.9952C22.324 63.9952 43.162 63.9952 64 63.9952C64 63.6253 64 63.2554 64 62.8855C63.6671 62.5033 63.2602 62.38 62.7547 62.4046C61.9285 62.4416 61.1024 62.4169 60.227 62.4169C60.227 60.9743 60.2146 59.6303 60.2393 58.2863C60.2393 58.1384 60.4736 57.9534 60.6339 57.8671C61.0654 57.6452 61.5463 57.4972 61.9532 57.2506C63.1122 56.5478 63.6548 55.4134 64 54.168C64 53.7118 64 53.2679 64 52.8117C63.6548 51.4184 62.9643 50.2594 61.6203 49.4826C62.9519 48.6688 63.6178 47.5098 63.9753 46.1411C63.9753 45.6972 63.9753 45.241 63.9753 44.7848ZM15.0245 13.5154C15.2218 13.5894 15.3574 13.6264 15.4807 13.6881C21.6951 16.339 27.9095 18.99 34.1363 21.6164C34.5802 21.8013 34.6172 22.0726 34.6172 22.4671C34.6172 35.5495 34.6172 48.6318 34.6172 61.7141C34.6172 61.9361 34.5925 62.1457 34.5925 62.3553C33.0882 62.3553 31.6579 62.3553 30.1783 62.3553C30.1783 62.084 30.1783 61.8621 30.1783 61.6278C30.1783 59.3714 30.1783 57.115 30.1783 54.8585C30.1783 53.9338 29.9687 53.7118 29.0686 53.7118C26.245 53.6995 23.409 53.6995 20.5854 53.7118C19.71 53.7118 19.4634 53.9708 19.4634 54.8709C19.4634 57.152 19.4634 59.4207 19.4634 61.7018C19.4634 61.9237 19.4634 62.1334 19.4634 62.3553C17.9468 62.3553 16.5041 62.3553 15.0492 62.3553C15.0245 46.0671 15.0245 29.8406 15.0245 13.5154ZM49.8943 27.9417C49.8943 39.4581 49.8943 50.9129 49.8943 62.3676C45.3074 62.3676 40.7699 62.3676 36.2201 62.3676C36.2201 50.8759 36.2201 39.4211 36.2201 27.9417C40.8069 27.9417 45.3321 27.9417 49.8943 27.9417ZM42.3975 16.0924C37.3668 16.0924 32.3731 16.0924 27.3547 16.0924C27.3547 14.1073 27.3547 12.1468 27.3547 10.1616C32.3854 10.1616 37.3791 10.1616 42.3975 10.1616C42.3975 12.1468 42.3975 14.0826 42.3975 16.0924ZM29.2782 17.8433C29.2905 17.8187 29.2905 17.794 29.3029 17.7693C33.6677 17.7693 38.045 17.7693 42.4098 17.7693C42.4098 20.6299 42.4098 23.4536 42.4098 26.2772C40.326 26.2772 38.2792 26.2772 36.1954 26.2772C36.1954 24.7359 36.1708 23.2316 36.2078 21.7397C36.2324 21.0368 35.9735 20.6669 35.32 20.3957C33.2855 19.5819 31.288 18.6941 29.2782 17.8433ZM28.5507 55.3024C28.5507 57.6698 28.5507 60.0126 28.5507 62.343C26.023 62.343 23.5323 62.343 21.0663 62.343C21.0663 59.9632 21.0663 57.6452 21.0663 55.3024C23.5817 55.3024 26.0477 55.3024 28.5507 55.3024ZM56.4539 45.4753C56.4416 43.8354 57.7609 42.4914 59.4008 42.4667C61.0161 42.442 62.3847 43.7984 62.3971 45.4259C62.4094 47.0659 61.0901 48.4099 59.4502 48.4345C57.8226 48.4592 56.4663 47.1152 56.4539 45.4753ZM2.55869 45.4383C2.57102 43.7984 3.91501 42.4544 5.54259 42.4667C7.17018 42.479 8.50184 43.823 8.48951 45.4629C8.47718 47.1029 7.13318 48.4468 5.5056 48.4345C3.87802 48.4222 2.54636 47.0782 2.55869 45.4383ZM56.4539 53.4776C56.4416 51.8376 57.7609 50.4937 59.4008 50.469C61.0161 50.4443 62.3847 51.8007 62.3847 53.4282C62.3971 55.0682 61.0777 56.4121 59.4378 56.4368C57.8102 56.4615 56.4663 55.1175 56.4539 53.4776ZM2.55869 53.4529C2.55869 51.813 3.90268 50.469 5.53026 50.469C7.15785 50.469 8.48951 51.813 8.48951 53.4529C8.48951 55.0928 7.14552 56.4368 5.51793 56.4368C3.89035 56.4491 2.55869 55.0928 2.55869 53.4529Z" fill="black"/>
<path d="M24.8394 37.5225C23.1255 37.5225 21.3992 37.5225 19.6853 37.5225C19.5374 37.5225 19.4017 37.5225 19.2538 37.5225C18.7852 37.5471 18.4647 37.7444 18.4277 38.2499C18.3907 38.7801 18.7113 39.0884 19.2045 39.0884C22.9528 39.1131 26.7012 39.1007 30.4373 39.0884C30.9181 39.0884 31.2634 38.7678 31.2141 38.2499C31.1647 37.7444 30.8072 37.5225 30.314 37.5225C28.4891 37.5225 26.6642 37.5225 24.8394 37.5225Z" fill="black"/>
<path d="M24.8396 32.7258C23.1011 32.7258 21.3502 32.7258 19.6116 32.7258C19.402 32.7258 19.1431 32.6642 19.0074 32.7751C18.7732 32.9478 18.4649 33.219 18.4526 33.4656C18.4403 33.7122 18.6992 34.0328 18.9335 34.2054C19.0938 34.3287 19.402 34.3041 19.6486 34.3041C23.0887 34.3041 26.5412 34.3041 29.9813 34.3041C30.1046 34.3041 30.2279 34.3041 30.3512 34.3041C30.8321 34.2671 31.1773 34.0451 31.2143 33.5273C31.2513 33.0834 30.8691 32.7381 30.3142 32.7381C28.4894 32.7258 26.6645 32.7258 24.8396 32.7258Z" fill="black"/>
<path d="M24.8513 43.8109C26.5282 43.8109 28.2052 43.8109 29.8821 43.8109C30.0423 43.8109 30.215 43.8109 30.3753 43.8109C30.8561 43.7986 31.1767 43.5643 31.2014 43.0834C31.2384 42.5655 30.8931 42.2573 30.4123 42.2573C26.6639 42.245 22.9155 42.245 19.1795 42.2573C18.7232 42.2573 18.4027 42.5409 18.415 43.0464C18.4273 43.5766 18.7602 43.8109 19.2534 43.8109C21.1276 43.8232 22.9895 43.8109 24.8513 43.8109Z" fill="black"/>
<path d="M24.7906 46.9795C23.015 46.9795 21.2271 46.9795 19.4516 46.9795C18.7611 46.9795 18.4282 47.2384 18.4282 47.744C18.4282 48.2495 18.7611 48.5454 19.4516 48.5454C23.0274 48.5578 26.6154 48.5578 30.1912 48.5454C30.857 48.5454 31.2393 48.2495 31.2393 47.7563C31.2393 47.2631 30.8694 46.9795 30.2035 46.9795C28.391 46.9795 26.5908 46.9795 24.7906 46.9795Z" fill="black"/>
<path d="M24.8146 29.5571C26.6395 29.5571 28.4643 29.5818 30.2892 29.5325C30.5851 29.5201 30.955 29.2612 31.14 29.0146C31.251 28.8666 31.1153 28.4597 30.9674 28.2624C30.8441 28.1022 30.5358 28.0158 30.3139 28.0158C26.6395 28.0035 22.9774 28.0035 19.303 28.0158C18.7112 28.0158 18.3906 28.3241 18.4276 28.8173C18.4646 29.3845 18.8345 29.5694 19.3523 29.5694C21.1649 29.5571 22.9897 29.5571 24.8146 29.5571Z" fill="black"/>
<path d="M39.969 51.0237C39.969 51.369 39.9443 51.7142 39.969 52.0595C40.0059 52.5157 40.2772 52.7746 40.7334 52.7746C41.1526 52.7746 41.4609 52.5404 41.4732 52.1211C41.5102 51.369 41.5102 50.6045 41.4732 49.8524C41.4486 49.3962 41.1157 49.1742 40.6594 49.1989C40.2279 49.2235 39.9936 49.4825 39.9566 49.914C39.9443 50.2839 39.969 50.6538 39.969 51.0237Z" fill="black"/>
<path d="M46.1469 33.4534C46.1469 33.1205 46.1592 32.7999 46.1469 32.467C46.1222 32.0231 45.8756 31.7395 45.4194 31.7148C44.9632 31.6902 44.6549 31.9368 44.6303 32.393C44.5933 33.1205 44.5933 33.8603 44.6303 34.6001C44.6549 35.044 44.9508 35.3152 45.4071 35.3029C45.8509 35.2906 46.1222 35.0193 46.1469 34.5631C46.1592 34.1932 46.1469 33.8233 46.1469 33.4534Z" fill="black"/>
<path d="M39.9566 33.5521C39.9566 33.8851 39.9443 34.2056 39.9566 34.5386C39.969 34.9948 40.2279 35.2784 40.6718 35.303C41.1157 35.34 41.4486 35.0934 41.4732 34.6372C41.5102 33.8851 41.5102 33.1329 41.4732 32.3684C41.4486 31.9492 41.1526 31.7149 40.7211 31.7273C40.2649 31.7396 39.9936 31.9985 39.969 32.4424C39.9443 32.8123 39.969 33.1822 39.9566 33.5521C39.969 33.5521 39.969 33.5521 39.9566 33.5521Z" fill="black"/>
<path d="M46.1345 39.3351C46.1345 38.9652 46.1592 38.5952 46.1345 38.2377C46.0976 37.8061 45.8263 37.5718 45.4071 37.5472C44.9878 37.5225 44.6673 37.7568 44.6426 38.176C44.5933 38.9528 44.5933 39.7296 44.6426 40.4941C44.6673 40.9133 44.9878 41.1353 45.4071 41.1229C45.8386 41.1106 46.0976 40.864 46.1345 40.4448C46.1592 40.0749 46.1345 39.705 46.1345 39.3351Z" fill="black"/>
<path d="M39.9681 39.3351C39.9681 39.705 39.9434 40.0749 39.9681 40.4324C40.0051 40.8517 40.264 41.0983 40.6956 41.1106C41.1271 41.1229 41.4477 40.9133 41.4724 40.4941C41.5217 39.7173 41.5093 38.9405 41.4724 38.176C41.4477 37.7568 41.1271 37.5225 40.7079 37.5472C40.2887 37.5595 40.0174 37.8061 39.9804 38.2377C39.9434 38.5952 39.9681 38.9652 39.9681 39.3351Z" fill="black"/>
<path d="M46.1463 50.95C46.1463 50.6048 46.1709 50.2595 46.1463 49.9143C46.1093 49.4951 45.8627 49.2361 45.4434 49.2115C44.9872 49.1868 44.6666 49.4211 44.642 49.8773C44.605 50.6295 44.605 51.3816 44.642 52.1337C44.6666 52.553 44.9749 52.7872 45.3941 52.7872C45.8503 52.7749 46.1216 52.516 46.1463 52.0598C46.1586 51.6899 46.1463 51.3199 46.1463 50.95Z" fill="black"/>
<path d="M44.5689 45.167C44.5812 45.5493 44.5812 45.9192 44.6182 46.2891C44.6675 46.7206 44.9635 46.9549 45.3704 46.9549C45.8019 46.9549 46.1225 46.696 46.1348 46.2398C46.1595 45.5246 46.1595 44.8095 46.1348 44.0943C46.1225 43.6381 45.8142 43.3792 45.3827 43.3792C44.9758 43.3792 44.6799 43.6011 44.6305 44.0327C44.5812 44.4149 44.5936 44.7971 44.5689 45.167Z" fill="black"/>
<path d="M39.9683 45.2039C39.9683 45.5491 39.956 45.8944 39.9683 46.2396C39.993 46.6712 40.2766 46.9178 40.6835 46.9425C41.1274 46.9671 41.4603 46.7328 41.485 46.2766C41.5219 45.5245 41.5219 44.7723 41.485 44.0202C41.4603 43.5886 41.1397 43.3667 40.7328 43.3667C40.2889 43.379 40.0053 43.6256 39.9807 44.0942C39.9437 44.4641 39.9683 44.834 39.9683 45.2039Z" fill="black"/>
<path d="M39.969 56.8561C39.969 57.2013 39.9443 57.5466 39.969 57.8918C39.9936 58.3111 40.2525 58.57 40.6718 58.5947C41.128 58.6193 41.4486 58.385 41.4732 57.9411C41.5102 57.189 41.5102 56.4369 41.4732 55.6847C41.4486 55.2532 41.1403 55.0189 40.7211 55.0312C40.2772 55.0436 39.9936 55.3025 39.969 55.7587C39.9443 56.1163 39.969 56.4862 39.969 56.8561Z" fill="black"/>
<path d="M44.5689 56.856C44.5812 57.2259 44.5812 57.5958 44.6305 57.9534C44.6799 58.3726 44.9635 58.6069 45.3827 58.5946C45.8389 58.5822 46.1225 58.3356 46.1348 57.8794C46.1595 57.1642 46.1595 56.4491 46.1348 55.7339C46.1225 55.2777 45.8142 55.0188 45.3704 55.0188C44.9511 55.0188 44.6675 55.2531 44.6305 55.6846C44.5936 56.0669 44.6182 56.4614 44.6182 56.8437C44.6059 56.856 44.5936 56.856 44.5689 56.856Z" fill="black"/>
</svg>
