<svg width="73" height="58" viewBox="0 0 73 58" fill="none" xmlns="http://www.w3.org/2000/svg">
<path d="M57.2399 56.4006L70.3944 43.246C70.7816 42.8593 70.9994 42.3347 70.9999 41.7874V23.7205C70.9999 22.352 70.4562 21.0396 69.4885 20.0719C68.5208 19.1042 67.2084 18.5605 65.8399 18.5605C64.4714 18.5605 63.1589 19.1042 62.1912 20.0719C61.2235 21.0396 60.6799 22.352 60.6799 23.7205V39.2005" stroke="black" stroke-width="2.5" stroke-linecap="round" stroke-linejoin="round"/>
<path d="M57.24 42.6405L60.1915 39.689C60.3472 39.5346 60.4705 39.3508 60.5544 39.1482C60.6383 38.9456 60.681 38.7284 60.68 38.5091C60.6775 38.2002 60.5903 37.8979 60.4277 37.6352C60.2651 37.3725 60.0334 37.1595 59.758 37.0196L58.2341 36.2593C56.943 35.6138 55.4816 35.3907 54.0568 35.6216C52.6319 35.8525 51.3157 36.5257 50.2946 37.5459L47.2158 40.6247C45.9255 41.9147 45.2003 43.6643 45.2 45.4889V56.4006M15.96 56.4006L2.80539 43.246C2.41821 42.8593 2.20043 42.3347 2.19995 41.7874V23.7205C2.19995 22.352 2.74359 21.0396 3.71128 20.0719C4.67897 19.1042 5.99143 18.5605 7.35995 18.5605C8.72847 18.5605 10.0409 19.1042 11.0086 20.0719C11.9763 21.0396 12.52 22.352 12.52 23.7205V39.2005" stroke="black" stroke-width="2.5" stroke-linecap="round" stroke-linejoin="round"/>
<path d="M15.9599 42.6404L13.0084 39.6888C12.7002 39.3728 12.5253 38.9503 12.5199 38.5089C12.5199 37.8794 12.8777 37.3049 13.4418 37.0194L14.9657 36.2592C16.2568 35.6136 17.7182 35.3905 19.1431 35.6214C20.568 35.8523 21.8841 36.5255 22.9053 37.5457L25.9841 40.6245C27.2744 41.9145 27.9995 43.6641 27.9999 45.4887V56.4004M42.3344 28.8804H30.8654V20.8548H22.8399V9.38587H30.8654V1.36035H42.3344V9.38587H50.3599V20.8548H42.3344V28.8804Z" stroke="black" stroke-width="2.5" stroke-linecap="round" stroke-linejoin="round"/>
</svg>
