<svg width="53" height="62" viewBox="0 0 53 62" fill="none" xmlns="http://www.w3.org/2000/svg">
<path d="M14.9991 60.4976H37.8326C39.8806 60.4975 41.8995 60.0136 43.7249 59.0853C45.5504 58.1569 47.1307 56.8104 48.337 55.1555C49.5433 53.5006 50.3416 51.5841 50.6668 49.5621C50.9919 47.5402 50.8348 45.47 50.2081 43.5203L44.6638 26.2765C43.6111 23.0013 41.5461 20.1447 38.7661 18.1181C35.9862 16.0915 32.6347 14.9996 29.1945 14.9995H23.6372C20.197 14.9996 16.8455 16.0915 14.0656 18.1181C11.2856 20.1447 9.22055 23.0013 8.16784 26.2765L2.62357 43.5203C1.9969 45.47 1.83974 47.5402 2.1649 49.5621C2.49006 51.5841 3.28834 53.5006 4.49468 55.1555C5.70103 56.8104 7.28131 58.1569 9.10674 59.0853C10.9322 60.0136 12.9511 60.4975 14.9991 60.4976ZM36.1654 2C33.9989 10.6663 30.749 14.9995 26.4158 14.9995C22.0827 14.9995 18.8328 10.6663 16.6662 2H36.1654Z" stroke="#111111" stroke-width="2.54335" stroke-linecap="round" stroke-linejoin="round"/>
<path d="M32.915 27.9989H24.7903C23.4974 27.9989 22.2575 28.5125 21.3433 29.4267C20.4291 30.3409 19.9155 31.5808 19.9155 32.8737C19.9155 34.1666 20.4291 35.4065 21.3433 36.3207C22.2575 37.2349 23.4974 37.7485 24.7903 37.7485H28.0402C29.3331 37.7485 30.573 38.2621 31.4872 39.1763C32.4014 40.0905 32.915 41.3304 32.915 42.6233C32.915 43.9162 32.4014 45.1561 31.4872 46.0703C30.573 46.9845 29.3331 47.4981 28.0402 47.4981H19.9155M26.4153 24.749V27.9989M26.4153 47.4981V50.748" stroke="#111111" stroke-width="2.54335" stroke-linecap="round" stroke-linejoin="round"/>
</svg>
