<svg width="1617" height="321" viewBox="0 0 1617 321" fill="none" xmlns="http://www.w3.org/2000/svg">
<g clip-path="url(#clip0_2311_209)">
<path d="M234.9 288.4L230.1 320.2H0.5C10 298.2 9.4 285.8 9.4 269.9V51.3C9.4 35.9 10 22.4 0.5 1.00002H69.3H224.5L224.9 33.4C220.7 31.7 217.3 30.2 214.2 28.8C205.9 25.7 195.4 22.8 184.5 22.9C167.1 22.9 94.1 22.9 61.7 22.9V147.9H205.8L198.7 172.5H61.7V297.6C88.2 297.6 172.9 297.6 191.6 297.6C213.5 298 235.3 285.6 235.3 285.6L234.7 288.3C234.7 288.4 234.8 288.4 234.9 288.4ZM580.5 320.2C583.6 304.5 583.6 282.3 581.1 264.2L560.7 113.8L449.3 320.1H428.1L314.9 104.5L292.9 267.5C290.5 286.3 289.8 310.1 291.8 320.2H252C259.7 303.9 261.6 296.8 265.2 270L301.2 1.00002H319.5L451.6 252L583.6 1.00002H597.4L634.6 269.4C638.3 296.1 641.1 303.8 648.5 320.2H580.5ZM915.8 320.2L862.8 203.3H756.2L703.9 320.2H699.4H662.5H662.3C675.5 303.8 680 296.2 689.3 275.8L812.9 1.00002H826.8L948.4 268.1C961.4 294.2 967.5 302.3 986.1 320.2H915.8ZM1249.3 320.2L1196.3 203.3H1089.7L1037.4 320.2H1033H996H995.8C1009 303.8 1013.5 296.2 1022.8 275.8L1146.4 1.00002H1160.3L1282 268.1C1295 294.2 1301.1 302.3 1319.7 320.2H1249.3ZM1551.5 320.4C1519.6 291.3 1478.3 252.7 1426.6 191.5C1411.8 174.2 1401.4 172 1394.7 171.6V269.9C1394.7 285.7 1394.7 298.2 1403.7 320.2H1333.5C1343 298.2 1342.4 285.8 1342.4 269.9V51.1C1342.4 35.7 1343 22.2 1333.5 0.800025H1402.3C1449.3 0.800025 1560.4 -3.39998 1560.4 88.4C1560.4 136.9 1521.9 163 1476.7 169.6L1463.3 170.9C1463.3 170.9 1609.9 314.2 1616.2 320.4H1551.5ZM1468.4 151.3L1468.3 151.4C1497.9 140.2 1507.9 112.1 1506.9 88.3C1505.8 65.4 1495.5 15.6 1394.8 19.6V155.7C1394.8 155.7 1451.2 158.8 1467 151.9C1467.9 151.5 1468.4 151.3 1468.4 151.3ZM1099.9 181H1186L1142.6 85.7L1099.9 181ZM766.5 181H852.6L809.2 85.7L766.5 181Z" fill="white" fill-opacity="0.06"/>
</g>
<defs>
<clipPath id="clip0_2311_209">
<rect width="1617" height="321" fill="white"/>
</clipPath>
</defs>
</svg>
