<svg width="937" height="213" viewBox="0 0 937 213" fill="none" xmlns="http://www.w3.org/2000/svg">
<path d="M337.117 81.4531V47H353.758V107H337.781V96.1016H337.156C335.802 99.6172 333.549 102.443 330.398 104.578C327.273 106.714 323.458 107.781 318.953 107.781C314.943 107.781 311.414 106.87 308.367 105.047C305.32 103.224 302.938 100.633 301.219 97.2734C299.526 93.9141 298.667 89.8906 298.641 85.2031V47H315.281V82.2344C315.307 85.776 316.258 88.5755 318.133 90.6328C320.008 92.6901 322.521 93.7187 325.672 93.7187C327.677 93.7187 329.552 93.263 331.297 92.3516C333.042 91.4141 334.448 90.0339 335.516 88.2109C336.609 86.388 337.143 84.1354 337.117 81.4531ZM371.231 107V27H387.871V57.0781H388.379C389.108 55.4635 390.163 53.8229 391.543 52.1562C392.95 50.4635 394.773 49.0573 397.012 47.9375C399.278 46.7917 402.09 46.2188 405.45 46.2188C409.825 46.2188 413.861 47.3646 417.559 49.6563C421.257 51.9219 424.213 55.3464 426.426 59.9297C428.64 64.487 429.746 70.2031 429.746 77.0781C429.746 83.7708 428.666 89.4219 426.504 94.0312C424.369 98.6146 421.452 102.091 417.754 104.461C414.082 106.805 409.968 107.977 405.411 107.977C402.181 107.977 399.434 107.443 397.168 106.375C394.929 105.307 393.093 103.966 391.661 102.352C390.228 100.711 389.135 99.0573 388.379 97.3906H387.637V107H371.231ZM387.52 77C387.52 80.5677 388.015 83.6797 389.004 86.3359C389.994 88.9922 391.426 91.0625 393.301 92.5469C395.176 94.0052 397.455 94.7344 400.137 94.7344C402.845 94.7344 405.137 93.9922 407.012 92.5078C408.887 90.9974 410.306 88.9141 411.27 86.2578C412.26 83.5755 412.754 80.4896 412.754 77C412.754 73.5365 412.273 70.4896 411.309 67.8594C410.345 65.2292 408.926 63.1719 407.051 61.6875C405.176 60.2031 402.871 59.4609 400.137 59.4609C397.429 59.4609 395.137 60.1771 393.262 61.6094C391.413 63.0417 389.994 65.0729 389.004 67.7031C388.015 70.3333 387.52 73.4323 387.52 77ZM472.044 108.172C465.872 108.172 460.559 106.922 456.106 104.422C451.679 101.896 448.268 98.3281 445.872 93.7187C443.476 89.0833 442.278 83.6016 442.278 77.2734C442.278 71.1016 443.476 65.6849 445.872 61.0234C448.268 56.362 451.64 52.7292 455.989 50.125C460.364 47.5208 465.494 46.2188 471.38 46.2188C475.338 46.2188 479.023 46.8568 482.434 48.1328C485.872 49.3828 488.867 51.2708 491.419 53.7969C493.997 56.3229 496.002 59.5 497.434 63.3281C498.867 67.1302 499.583 71.5833 499.583 76.6875V81.2578H448.919V70.9453H483.919C483.919 68.5495 483.398 66.4271 482.356 64.5781C481.315 62.7292 479.869 61.2839 478.02 60.2422C476.197 59.1745 474.075 58.6406 471.653 58.6406C469.127 58.6406 466.887 59.2266 464.934 60.3984C463.007 61.5443 461.497 63.0937 460.403 65.0469C459.309 66.974 458.749 69.1224 458.723 71.4922V81.2969C458.723 84.2656 459.27 86.8307 460.364 88.9922C461.484 91.1536 463.059 92.8203 465.091 93.9922C467.122 95.1641 469.531 95.75 472.317 95.75C474.166 95.75 475.859 95.4896 477.395 94.9688C478.932 94.4479 480.247 93.6667 481.341 92.625C482.434 91.5833 483.268 90.3073 483.841 88.7969L499.231 89.8125C498.45 93.5104 496.848 96.7396 494.427 99.5C492.031 102.234 488.932 104.37 485.13 105.906C481.354 107.417 476.992 108.172 472.044 108.172ZM514.292 107V47H530.425V57.4687H531.05C532.144 53.7448 533.98 50.9323 536.558 49.0313C539.136 47.1042 542.105 46.1406 545.464 46.1406C546.297 46.1406 547.196 46.1927 548.159 46.2969C549.123 46.401 549.969 46.5443 550.698 46.7266V61.4922C549.917 61.2578 548.836 61.0495 547.456 60.8672C546.076 60.6849 544.813 60.5938 543.667 60.5938C541.219 60.5938 539.032 61.1276 537.105 62.1953C535.204 63.237 533.693 64.6953 532.573 66.5703C531.48 68.4453 530.933 70.6068 530.933 73.0547V107H514.292ZM579.793 72.3125V107H563.152V27H579.324V57.5859H580.027C581.381 54.0443 583.569 51.2708 586.589 49.2656C589.61 47.2344 593.399 46.2188 597.957 46.2188C602.123 46.2188 605.756 47.1302 608.855 48.9531C611.98 50.75 614.402 53.3411 616.121 56.7266C617.865 60.0859 618.725 64.1094 618.699 68.7969V107H602.058V71.7656C602.084 68.0677 601.147 65.1901 599.246 63.1328C597.371 61.0755 594.74 60.0469 591.355 60.0469C589.089 60.0469 587.084 60.5286 585.339 61.4922C583.621 62.4557 582.267 63.862 581.277 65.7109C580.313 67.5339 579.819 69.7344 579.793 72.3125ZM662.754 108.172C656.686 108.172 651.439 106.883 647.012 104.305C642.611 101.701 639.212 98.0807 636.816 93.4453C634.421 88.7839 633.223 83.3802 633.223 77.2344C633.223 71.0365 634.421 65.6198 636.816 60.9844C639.212 56.3229 642.611 52.7031 647.012 50.125C651.439 47.5208 656.686 46.2188 662.754 46.2188C668.822 46.2188 674.056 47.5208 678.457 50.125C682.884 52.7031 686.296 56.3229 688.691 60.9844C691.087 65.6198 692.285 71.0365 692.285 77.2344C692.285 83.3802 691.087 88.7839 688.691 93.4453C686.296 98.0807 682.884 101.701 678.457 104.305C674.056 106.883 668.822 108.172 662.754 108.172ZM662.832 95.2812C665.592 95.2812 667.897 94.5 669.746 92.9375C671.595 91.349 672.988 89.1875 673.926 86.4531C674.889 83.7187 675.371 80.6068 675.371 77.1172C675.371 73.6276 674.889 70.5156 673.926 67.7812C672.988 65.0469 671.595 62.8854 669.746 61.2969C667.897 59.7083 665.592 58.9141 662.832 58.9141C660.046 58.9141 657.702 59.7083 655.801 61.2969C653.926 62.8854 652.507 65.0469 651.543 67.7812C650.605 70.5156 650.137 73.6276 650.137 77.1172C650.137 80.6068 650.605 83.7187 651.543 86.4531C652.507 89.1875 653.926 91.349 655.801 92.9375C657.702 94.5 660.046 95.2812 662.832 95.2812ZM706.955 107V47H722.815V57.5859H723.518C724.768 54.0703 726.851 51.2969 729.768 49.2656C732.685 47.2344 736.174 46.2188 740.237 46.2188C744.351 46.2188 747.854 47.2474 750.745 49.3047C753.635 51.3359 755.562 54.0964 756.526 57.5859H757.151C758.375 54.1484 760.588 51.401 763.791 49.3437C767.021 47.2604 770.836 46.2188 775.237 46.2188C780.836 46.2188 785.38 48.0026 788.87 51.5703C792.385 55.112 794.143 60.138 794.143 66.6484V107H777.541V69.9297C777.541 66.5964 776.656 64.0964 774.885 62.4297C773.114 60.763 770.901 59.9297 768.245 59.9297C765.224 59.9297 762.867 60.8932 761.174 62.8203C759.482 64.7214 758.635 67.2344 758.635 70.3594V107H742.502V69.5781C742.502 66.6354 741.656 64.2917 739.963 62.5469C738.297 60.8021 736.096 59.9297 733.362 59.9297C731.513 59.9297 729.846 60.3984 728.362 61.3359C726.903 62.2474 725.745 63.5365 724.885 65.2031C724.026 66.8437 723.596 68.7708 723.596 70.9844V107H706.955ZM838.481 108.172C832.309 108.172 826.997 106.922 822.544 104.422C818.117 101.896 814.705 98.3281 812.309 93.7187C809.914 89.0833 808.716 83.6016 808.716 77.2734C808.716 71.1016 809.914 65.6849 812.309 61.0234C814.705 56.362 818.078 52.7292 822.427 50.125C826.802 47.5208 831.932 46.2188 837.817 46.2188C841.776 46.2188 845.46 46.8568 848.872 48.1328C852.309 49.3828 855.304 51.2708 857.856 53.7969C860.434 56.3229 862.44 59.5 863.872 63.3281C865.304 67.1302 866.02 71.5833 866.02 76.6875V81.2578H815.356V70.9453H850.356C850.356 68.5495 849.835 66.4271 848.794 64.5781C847.752 62.7292 846.307 61.2839 844.458 60.2422C842.635 59.1745 840.513 58.6406 838.091 58.6406C835.565 58.6406 833.325 59.2266 831.372 60.3984C829.445 61.5443 827.934 63.0937 826.841 65.0469C825.747 66.974 825.187 69.1224 825.161 71.4922V81.2969C825.161 84.2656 825.708 86.8307 826.802 88.9922C827.921 91.1536 829.497 92.8203 831.528 93.9922C833.559 95.1641 835.968 95.75 838.755 95.75C840.604 95.75 842.296 95.4896 843.833 94.9688C845.369 94.4479 846.684 93.6667 847.778 92.625C848.872 91.5833 849.705 90.3073 850.278 88.7969L865.669 89.8125C864.888 93.5104 863.286 96.7396 860.864 99.5C858.468 102.234 855.369 104.37 851.567 105.906C847.791 107.417 843.429 108.172 838.481 108.172ZM930.652 64.1094L915.417 65.0469C915.157 63.7448 914.597 62.5729 913.737 61.5312C912.878 60.4635 911.745 59.6172 910.339 58.9922C908.959 58.3411 907.305 58.0156 905.378 58.0156C902.8 58.0156 900.626 58.5625 898.855 59.6562C897.084 60.724 896.198 62.1562 896.198 63.9531C896.198 65.3854 896.771 66.5964 897.917 67.5859C899.063 68.5755 901.029 69.3698 903.816 69.9687L914.675 72.1562C920.508 73.3542 924.857 75.2812 927.722 77.9375C930.586 80.5937 932.019 84.0833 932.019 88.4062C932.019 92.3385 930.86 95.7891 928.542 98.7578C926.251 101.727 923.099 104.044 919.089 105.711C915.105 107.352 910.508 108.172 905.3 108.172C897.357 108.172 891.029 106.518 886.316 103.211C881.628 99.8776 878.881 95.3464 878.073 89.6172L894.441 88.7578C894.935 91.1797 896.133 93.0286 898.034 94.3047C899.935 95.5547 902.37 96.1797 905.339 96.1797C908.256 96.1797 910.599 95.6198 912.37 94.5C914.167 93.3542 915.079 91.8828 915.105 90.0859C915.079 88.5755 914.441 87.3385 913.191 86.375C911.941 85.3854 910.014 84.6302 907.409 84.1094L897.019 82.0391C891.159 80.8672 886.797 78.8359 883.933 75.9453C881.094 73.0547 879.675 69.3698 879.675 64.8906C879.675 61.0365 880.717 57.7161 882.8 54.9297C884.909 52.1432 887.865 49.9948 891.667 48.4844C895.495 46.974 899.974 46.2188 905.105 46.2188C912.683 46.2188 918.646 47.8203 922.995 51.0234C927.37 54.2266 929.922 58.5885 930.652 64.1094Z" fill="white"/>
<path d="M358.161 194V157.636H372.507C375.253 157.636 377.597 158.128 379.538 159.11C381.491 160.081 382.977 161.46 383.995 163.247C385.025 165.023 385.54 167.112 385.54 169.515C385.54 171.93 385.019 174.007 383.977 175.747C382.936 177.475 381.426 178.801 379.45 179.724C377.485 180.648 375.105 181.109 372.312 181.109H362.706V174.93H371.069C372.537 174.93 373.756 174.729 374.727 174.327C375.697 173.924 376.419 173.321 376.893 172.516C377.378 171.711 377.621 170.71 377.621 169.515C377.621 168.308 377.378 167.29 376.893 166.461C376.419 165.632 375.691 165.005 374.709 164.579C373.738 164.141 372.513 163.922 371.033 163.922H365.849V194H358.161ZM377.798 177.452L386.836 194H378.349L369.506 177.452H377.798ZM409.473 194V157.636H433.976V163.975H417.161V172.64H432.715V178.979H417.161V187.661H434.047V194H409.473ZM464.856 194H456.617L469.171 157.636H479.078L491.614 194H483.375L474.267 165.946H473.982L464.856 194ZM464.341 179.707H483.801V185.708H464.341V179.707ZM514.491 194V157.636H522.179V187.661H537.768V194H514.491ZM591.432 194V157.636H615.935V163.975H599.12V172.64H614.674V178.979H599.12V187.661H616.006V194H591.432ZM660.274 168.094C660.132 166.662 659.522 165.549 658.445 164.756C657.368 163.963 655.906 163.567 654.059 163.567C652.805 163.567 651.745 163.744 650.881 164.099C650.017 164.443 649.354 164.922 648.892 165.538C648.443 166.153 648.218 166.852 648.218 167.633C648.194 168.284 648.33 168.852 648.626 169.337C648.934 169.823 649.354 170.243 649.887 170.598C650.419 170.941 651.035 171.243 651.733 171.504C652.432 171.752 653.177 171.965 653.971 172.143L657.238 172.924C658.824 173.279 660.28 173.753 661.605 174.344C662.931 174.936 664.079 175.664 665.05 176.528C666.021 177.393 666.772 178.411 667.305 179.582C667.85 180.754 668.128 182.098 668.14 183.613C668.128 185.838 667.56 187.768 666.435 189.401C665.322 191.023 663.712 192.284 661.605 193.183C659.51 194.071 656.983 194.515 654.024 194.515C651.088 194.515 648.531 194.065 646.353 193.165C644.187 192.266 642.494 190.934 641.275 189.17C640.068 187.395 639.435 185.199 639.375 182.583H646.815C646.898 183.802 647.247 184.82 647.863 185.637C648.49 186.442 649.324 187.052 650.366 187.466C651.42 187.868 652.609 188.07 653.935 188.07C655.237 188.07 656.368 187.88 657.326 187.501C658.297 187.123 659.049 186.596 659.581 185.921C660.114 185.246 660.38 184.471 660.38 183.595C660.38 182.778 660.138 182.092 659.652 181.536C659.179 180.979 658.48 180.506 657.557 180.115C656.646 179.724 655.527 179.369 654.201 179.05L650.242 178.055C647.176 177.31 644.755 176.144 642.98 174.558C641.204 172.971 640.322 170.835 640.334 168.148C640.322 165.946 640.908 164.022 642.092 162.377C643.288 160.732 644.927 159.447 647.01 158.524C649.094 157.601 651.461 157.139 654.113 157.139C656.811 157.139 659.167 157.601 661.179 158.524C663.203 159.447 664.778 160.732 665.902 162.377C667.027 164.022 667.607 165.928 667.642 168.094H660.274ZM690.426 163.975V157.636H720.291V163.975H709.158V194H701.559V163.975H690.426ZM745.534 194H737.295L749.848 157.636H759.756L772.292 194H764.053L754.944 165.946H754.66L745.534 194ZM745.019 179.707H764.479V185.708H745.019V179.707ZM789.34 163.975V157.636H819.205V163.975H808.072V194H800.473V163.975H789.34ZM842.623 194V157.636H867.126V163.975H850.312V172.64H865.866V178.979H850.312V187.661H867.197V194H842.623Z" fill="white"/>
<path d="M134.877 2.69604L89.0518 29.6242V212.453H134.877V2.69604Z" fill="white"/>
<path d="M47.4787 77.1028H0.944849H0.472424C0.472424 77.1028 0 151.982 0 156.943C2.12591 176.784 12.3843 190.485 14.4089 192.611C16.4336 194.736 25.5109 208.437 47.9511 212.452L47.4787 77.1028Z" fill="white"/>
<path d="M179.521 212.453L226.055 212.453L226.528 212.453C226.528 212.453 227 137.573 227 132.613C224.874 112.771 214.616 99.0708 212.591 96.9449C210.566 94.8189 201.489 81.1186 179.049 77.103L179.521 212.453Z" fill="white"/>
</svg>
