<svg width="32" height="32" viewBox="0 0 32 32" fill="none" xmlns="http://www.w3.org/2000/svg">
<path d="M16.7075 9.29255L26.7075 19.2926C26.8004 19.3855 26.8741 19.4958 26.9244 19.6172C26.9747 19.7386 27.0006 19.8687 27.0006 20.0001C27.0006 20.1314 26.9747 20.2616 26.9244 20.383C26.8741 20.5043 26.8004 20.6146 26.7075 20.7076C26.6146 20.8005 26.5043 20.8742 26.3829 20.9244C26.2615 20.9747 26.1314 21.0006 26 21.0006C25.8686 21.0006 25.7385 20.9747 25.6171 20.9244C25.4957 20.8742 25.3854 20.8005 25.2925 20.7076L16 11.4138L6.7075 20.7076C6.51986 20.8952 6.26536 21.0006 6 21.0006C5.73464 21.0006 5.48014 20.8952 5.2925 20.7076C5.10486 20.5199 4.99944 20.2654 4.99944 20.0001C4.99944 19.7347 5.10486 19.4802 5.2925 19.2926L15.2925 9.29255C15.3854 9.19958 15.4957 9.12582 15.6171 9.07549C15.7385 9.02517 15.8686 8.99927 16 8.99927C16.1314 8.99927 16.2615 9.02517 16.3829 9.07549C16.5043 9.12582 16.6146 9.19958 16.7075 9.29255Z" fill="white"/>
</svg>
