<svg width="24" height="23" viewBox="0 0 24 23" fill="none" xmlns="http://www.w3.org/2000/svg">
<path d="M12.2292 5.77671C15.3874 5.77671 17.9941 8.38348 17.9941 11.5417C17.9941 14.75 15.3874 17.3067 12.2292 17.3067C9.02083 17.3067 6.46419 14.75 6.46419 11.5417C6.46419 8.38348 9.02083 5.77671 12.2292 5.77671ZM12.2292 15.3015C14.2845 15.3015 15.9388 13.6472 15.9388 11.5417C15.9388 9.48635 14.2845 7.83205 12.2292 7.83205C10.1237 7.83205 8.4694 9.48635 8.4694 11.5417C8.4694 13.6472 10.1738 15.3015 12.2292 15.3015ZM19.5482 5.57619C19.5482 6.32814 18.9466 6.92971 18.1947 6.92971C17.4427 6.92971 16.8411 6.32814 16.8411 5.57619C16.8411 4.82424 17.4427 4.22268 18.1947 4.22268C18.9466 4.22268 19.5482 4.82424 19.5482 5.57619ZM23.3581 6.92971C23.4583 8.78452 23.4583 14.349 23.3581 16.2038C23.2578 18.0085 22.8568 19.5625 21.5534 20.916C20.25 22.2194 18.6458 22.6205 16.8411 22.7207C14.9863 22.821 9.42188 22.821 7.56706 22.7207C5.76237 22.6205 4.20833 22.2194 2.85482 20.916C1.55143 19.5625 1.15039 18.0085 1.05013 16.2038C0.94987 14.349 0.94987 8.78452 1.05013 6.92971C1.15039 5.12502 1.55143 3.52085 2.85482 2.21747C4.20833 0.914082 5.76237 0.51304 7.56706 0.41278C9.42188 0.312519 14.9863 0.312519 16.8411 0.41278C18.6458 0.51304 20.25 0.914082 21.5534 2.21747C22.8568 3.52085 23.2578 5.12502 23.3581 6.92971ZM20.9518 18.1589C21.5534 16.7051 21.403 13.196 21.403 11.5417C21.403 9.93752 21.5534 6.42841 20.9518 4.9245C20.5508 3.97202 19.7988 3.16994 18.8464 2.81903C17.3424 2.21747 13.8333 2.36786 12.2292 2.36786C10.5749 2.36786 7.06576 2.21747 5.61198 2.81903C4.60938 3.22007 3.85742 3.97202 3.45638 4.9245C2.85482 6.42841 3.00521 9.93752 3.00521 11.5417C3.00521 13.196 2.85482 16.7051 3.45638 18.1589C3.85742 19.1615 4.60938 19.9134 5.61198 20.3145C7.06576 20.916 10.5749 20.7656 12.2292 20.7656C13.8333 20.7656 17.3424 20.916 18.8464 20.3145C19.7988 19.9134 20.6009 19.1615 20.9518 18.1589Z" fill="white"/>
</svg>
