<svg width="24" height="24" viewBox="0 0 24 24" fill="none" xmlns="http://www.w3.org/2000/svg">
<path d="M3 4.14286C3 3.57454 3.23705 3.02949 3.65901 2.62763C4.08097 2.22576 4.65326 2 5.25 2H14.0625C14.3826 2 14.6996 2.06005 14.9953 2.17671C15.291 2.29337 15.5597 2.46437 15.7861 2.67993C16.0124 2.8955 16.192 3.15141 16.3145 3.43306C16.437 3.71471 16.5 4.01657 16.5 4.32143V9.85714H18.5625C18.8826 9.85714 19.1996 9.91719 19.4953 10.0339C19.791 10.1505 20.0597 10.3215 20.2861 10.5371C20.5124 10.7526 20.692 11.0086 20.8145 11.2902C20.937 11.5718 21 11.8737 21 12.1786V21.2857C21 21.4752 20.921 21.6568 20.7803 21.7908C20.6397 21.9247 20.4489 22 20.25 22H17.25V18.7857C17.25 18.5016 17.1315 18.229 16.9205 18.0281C16.7095 17.8272 16.4234 17.7143 16.125 17.7143H7.875C7.57663 17.7143 7.29048 17.8272 7.0795 18.0281C6.86853 18.229 6.75 18.5016 6.75 18.7857V22H3.75C3.55109 22 3.36032 21.9247 3.21967 21.7908C3.07902 21.6568 3 21.4752 3 21.2857V4.14286ZM15.75 19.1429V22H12.75V19.1429H15.75ZM11.25 19.1429V22H8.25V19.1429H11.25ZM9 6.64286C9 6.3587 8.88147 6.08617 8.6705 5.88524C8.45952 5.68431 8.17337 5.57143 7.875 5.57143C7.57663 5.57143 7.29048 5.68431 7.0795 5.88524C6.86853 6.08617 6.75 6.3587 6.75 6.64286C6.75 6.92702 6.86853 7.19954 7.0795 7.40047C7.29048 7.6014 7.57663 7.71429 7.875 7.71429C8.17337 7.71429 8.45952 7.6014 8.6705 7.40047C8.88147 7.19954 9 6.92702 9 6.64286ZM9 10.2143C9 9.93013 8.88147 9.6576 8.6705 9.45667C8.45952 9.25574 8.17337 9.14286 7.875 9.14286C7.57663 9.14286 7.29048 9.25574 7.0795 9.45667C6.86853 9.6576 6.75 9.93013 6.75 10.2143C6.75 10.4984 6.86853 10.771 7.0795 10.9719C7.29048 11.1728 7.57663 11.2857 7.875 11.2857C8.17337 11.2857 8.45952 11.1728 8.6705 10.9719C8.88147 10.771 9 10.4984 9 10.2143ZM7.875 14.8571C8.17337 14.8571 8.45952 14.7443 8.6705 14.5433C8.88147 14.3424 9 14.0699 9 13.7857C9 13.5016 8.88147 13.229 8.6705 13.0281C8.45952 12.8272 8.17337 12.7143 7.875 12.7143C7.57663 12.7143 7.29048 12.8272 7.0795 13.0281C6.86853 13.229 6.75 13.5016 6.75 13.7857C6.75 14.0699 6.86853 14.3424 7.0795 14.5433C7.29048 14.7443 7.57663 14.8571 7.875 14.8571ZM12.75 6.64286C12.75 6.3587 12.6315 6.08617 12.4205 5.88524C12.2095 5.68431 11.9234 5.57143 11.625 5.57143C11.3266 5.57143 11.0405 5.68431 10.8295 5.88524C10.6185 6.08617 10.5 6.3587 10.5 6.64286C10.5 6.92702 10.6185 7.19954 10.8295 7.40047C11.0405 7.6014 11.3266 7.71429 11.625 7.71429C11.9234 7.71429 12.2095 7.6014 12.4205 7.40047C12.6315 7.19954 12.75 6.92702 12.75 6.64286ZM11.625 11.2857C11.9234 11.2857 12.2095 11.1728 12.4205 10.9719C12.6315 10.771 12.75 10.4984 12.75 10.2143C12.75 9.93013 12.6315 9.6576 12.4205 9.45667C12.2095 9.25574 11.9234 9.14286 11.625 9.14286C11.3266 9.14286 11.0405 9.25574 10.8295 9.45667C10.6185 9.6576 10.5 9.93013 10.5 10.2143C10.5 10.4984 10.6185 10.771 10.8295 10.9719C11.0405 11.1728 11.3266 11.2857 11.625 11.2857ZM12.75 13.7857C12.75 13.5016 12.6315 13.229 12.4205 13.0281C12.2095 12.8272 11.9234 12.7143 11.625 12.7143C11.3266 12.7143 11.0405 12.8272 10.8295 13.0281C10.6185 13.229 10.5 13.5016 10.5 13.7857C10.5 14.0699 10.6185 14.3424 10.8295 14.5433C11.0405 14.7443 11.3266 14.8571 11.625 14.8571C11.9234 14.8571 12.2095 14.7443 12.4205 14.5433C12.6315 14.3424 12.75 14.0699 12.75 13.7857ZM15.375 14.8571C15.6734 14.8571 15.9595 14.7443 16.1705 14.5433C16.3815 14.3424 16.5 14.0699 16.5 13.7857C16.5 13.5016 16.3815 13.229 16.1705 13.0281C15.9595 12.8272 15.6734 12.7143 15.375 12.7143C15.0766 12.7143 14.7905 12.8272 14.5795 13.0281C14.3685 13.229 14.25 13.5016 14.25 13.7857C14.25 14.0699 14.3685 14.3424 14.5795 14.5433C14.7905 14.7443 15.0766 14.8571 15.375 14.8571Z" fill="black"/>
</svg>
