<svg width="14" height="10" viewBox="0 0 14 10" fill="none" xmlns="http://www.w3.org/2000/svg">
<path d="M8.56192 9.67837C8.42852 9.67837 8.29513 9.63339 8.18981 9.537C7.98621 9.35065 7.98621 9.0422 8.18981 8.85585L12.0794 5.2959L8.18981 1.73595C7.98621 1.5496 7.98621 1.24115 8.18981 1.0548C8.39342 0.868451 8.73042 0.868451 8.93403 1.0548L13.1957 4.95532C13.3993 5.14167 13.3993 5.45012 13.1957 5.63647L8.93403 9.537C8.82871 9.63339 8.69532 9.67837 8.56192 9.67837Z" fill="white" stroke="white" stroke-width="0.234043"/>
<path d="M12.704 5.77639L0.887893 5.77639C0.600038 5.77639 0.361328 5.55791 0.361328 5.29444C0.361328 5.03098 0.600038 4.8125 0.887893 4.8125L12.704 4.8125C12.9919 4.8125 13.2306 5.03098 13.2306 5.29444C13.2306 5.55791 12.9919 5.77639 12.704 5.77639Z" fill="white" stroke="white" stroke-width="0.234043"/>
</svg>
