<svg width="23" height="23" viewBox="0 0 23 23" fill="none" xmlns="http://www.w3.org/2000/svg">
<path d="M20.8542 0.312519C21.7064 0.312519 22.4583 1.06447 22.4583 1.96682V21.1667C22.4583 22.069 21.7064 22.7709 20.8542 22.7709H1.55404C0.701823 22.7709 0 22.069 0 21.1667V1.96682C0 1.06447 0.701823 0.312519 1.55404 0.312519H20.8542ZM6.76758 19.5625V8.88479H3.45898V19.5625H6.76758ZM5.11328 7.38088C6.16602 7.38088 7.01823 6.52867 7.01823 5.47593C7.01823 4.4232 6.16602 3.52085 5.11328 3.52085C4.01042 3.52085 3.1582 4.4232 3.1582 5.47593C3.1582 6.52867 4.01042 7.38088 5.11328 7.38088ZM19.25 19.5625V13.6973C19.25 10.8399 18.5983 8.584 15.2396 8.584C13.6354 8.584 12.5326 9.48635 12.0814 10.3386H12.0313V8.88479H8.87305V19.5625H12.1816V14.2988C12.1816 12.8952 12.4323 11.5417 14.1868 11.5417C15.8913 11.5417 15.8913 13.1459 15.8913 14.349V19.5625H19.25Z" fill="white"/>
</svg>
