<svg width="52" height="52" viewBox="0 0 52 52" fill="none" xmlns="http://www.w3.org/2000/svg">
<path d="M44.2613 51.1039C43.8179 50.852 43.3243 50.6706 42.9414 50.3382C42.4477 49.9251 42.4074 49.2903 42.4074 48.6757C42.4175 42.4592 42.4074 36.2427 42.4074 30.0362C42.4074 29.9052 42.4477 29.744 42.3973 29.6433C42.3369 29.5123 42.2059 29.4015 42.0749 29.3309C41.9842 29.2806 41.8432 29.3209 41.7323 29.3209C31.0625 29.3209 20.3826 29.3209 9.71269 29.3209C9.51119 29.3209 9.31975 29.3209 9.05779 29.3209C9.05779 29.5627 9.05779 29.7642 9.05779 29.9556C9.05779 36.1218 9.05779 42.2879 9.05779 48.444C9.05779 50.046 8.7253 50.5296 7.24422 51.1039C6.56917 51.1039 5.90419 51.1039 5.22914 51.1039C3.74805 50.5598 3.40549 50.056 3.40549 48.4541C3.40549 42.2879 3.40549 36.1218 3.40549 29.9556C3.40549 29.7642 3.40549 29.5627 3.40549 29.3209C2.96217 29.3209 2.5793 29.3007 2.19644 29.3209C1.12845 29.4015 0.382866 28.9984 0 27.9708C0 27.0942 0 26.2277 0 25.3511C0.352639 24.4444 0.98739 23.9507 1.8841 23.991C1.9244 23.2353 1.8438 22.4797 2.03523 21.8046C2.25689 21.0187 3.00247 20.8071 3.85888 20.8474C3.85888 20.1422 3.85888 19.457 3.85888 18.782C3.85888 18.4293 3.84881 18.0767 3.86896 17.7241C3.89918 17.2304 4.2216 16.8979 4.64476 16.918C5.05785 16.9382 5.35004 17.2505 5.36012 17.7341C5.38027 18.6409 5.37019 19.5477 5.37019 20.4444C5.37019 20.5553 5.39034 20.6762 5.40042 20.8172C11.496 20.8172 17.5816 20.8172 23.7377 20.8172C23.7377 20.6459 23.7377 20.4746 23.7377 20.2933C23.7377 17.0087 23.7377 13.7241 23.7377 10.4395C23.7377 9.71411 23.647 9.62343 22.9316 9.62343C17.3499 9.62343 11.7681 9.62343 6.1863 9.62343C5.47095 9.62343 5.37019 9.73426 5.37019 10.4395C5.37019 11.5982 5.37019 12.7569 5.37019 13.9055C5.37019 14.2581 5.30974 14.5805 4.9571 14.7518C4.46341 15.0037 3.88911 14.6813 3.87903 14.0969C3.85888 12.6864 3.83873 11.2758 3.89918 9.87532C3.93948 8.91815 4.71529 8.22295 5.67245 8.13227C5.75306 8.1222 5.84374 8.11212 5.92434 8.11212C11.6774 8.11212 17.4204 8.10205 23.1734 8.11212C24.2112 8.11212 24.9467 8.68642 25.1784 9.61336C25.2389 9.85517 25.2389 10.1071 25.2389 10.3589C25.2389 13.6637 25.2389 16.9583 25.2389 20.2631C25.2389 20.4444 25.2389 20.6258 25.2389 20.7971C27.2238 20.8676 27.5764 22.0061 27.1431 23.9607C29.2388 23.9607 31.3144 23.9607 33.4806 23.9607C33.4806 23.7391 33.4806 23.5174 33.4806 23.2857C33.5007 22.0867 34.3471 21.2202 35.536 21.2102C37.2085 21.19 38.8911 21.2202 40.5636 21.19C40.7953 21.19 41.0875 21.0691 41.2386 20.8978C42.8306 19.0641 44.4023 17.2102 45.9842 15.3664C46.1857 15.1347 46.2461 14.9835 46.0849 14.6813C45.692 13.9357 45.7021 13.1397 45.9942 12.3438C46.0446 12.1927 46.0345 11.9307 45.9439 11.84C44.231 10.097 42.488 8.37408 40.7651 6.64111C40.7248 6.60081 40.6643 6.57058 40.5636 6.50006C40.483 6.73179 40.4024 6.9333 40.3419 7.12473C39.8684 8.72672 39.4049 10.3388 38.9314 11.9408C38.5384 13.2707 37.2689 13.5931 36.2916 12.6158C34.0952 10.4295 31.8987 8.23303 29.7124 6.03659C28.7351 5.05927 29.0776 3.79984 30.4076 3.4069C31.8786 2.96359 33.3597 2.52027 34.8408 2.11725C35.4554 1.94597 35.9692 1.67393 36.4125 1.20039C36.7551 0.8276 37.1883 0.505187 37.6316 0.263377C38.1858 -0.0388855 38.8105 -0.0590364 39.4452 0.0920948C41.2286 0.515262 42.6593 2.64117 42.226 4.28346C42.1253 4.66633 41.9238 5.01897 41.7827 5.34138C43.6164 7.17511 45.4602 9.01891 47.3443 10.903C47.9388 10.6209 48.6642 10.4899 49.4199 10.7217C50.911 11.165 51.7775 12.7065 51.3644 14.2077C50.9513 15.709 49.3695 16.6158 47.8582 16.1624C47.5056 16.0616 47.3343 16.1221 47.1025 16.384C45.8633 17.855 44.6038 19.316 43.3545 20.787C43.2638 20.8978 43.1832 21.0187 43.0321 21.2102C43.8986 21.2303 44.7147 21.1396 45.3595 21.7643C45.9842 22.3688 46.0648 23.1346 46.0245 23.991C46.2461 24.001 46.4174 24.0212 46.5988 24.0212C47.6164 24.0212 48.6441 24.0111 49.6617 24.0313C50.7801 24.0514 51.4753 24.7567 51.4853 25.865C51.4954 26.4393 51.4954 27.0035 51.4853 27.5778C51.4652 28.5753 50.7801 29.2806 49.7725 29.3209C49.2184 29.341 48.6743 29.3209 48.0496 29.3209C48.0496 29.9355 48.0496 30.4997 48.0496 31.0538C48.0496 31.608 48.0698 32.1621 48.0395 32.7163C48.0194 33.1797 47.6768 33.4921 47.2738 33.4921C46.8607 33.482 46.5484 33.1697 46.5484 32.6961C46.5383 31.608 46.5484 30.5198 46.5484 29.3813C45.6819 29.3813 44.8356 29.3813 43.9389 29.3813C43.9288 29.5425 43.9086 29.7239 43.9086 29.8952C43.9086 36.1419 43.9086 42.3987 43.9086 48.6455C43.9086 49.4515 44.0396 49.5825 44.8456 49.5825C45.0975 49.5825 45.3494 49.5825 45.6013 49.5825C46.3973 49.5825 46.5484 49.4314 46.5484 48.6556C46.5484 46.8118 46.5484 44.968 46.5484 43.1242C46.5484 40.958 46.5484 38.8018 46.5484 36.6356C46.5484 36.4643 46.498 36.2527 46.5786 36.1419C46.7499 35.9102 46.9816 35.5878 47.2234 35.5676C47.4552 35.5374 47.7776 35.7893 47.969 35.9908C48.0899 36.1218 48.0597 36.4039 48.0597 36.6155C48.0597 40.5348 48.0597 44.4541 48.0597 48.3835C48.0597 50.046 47.7574 50.5094 46.2663 51.114C45.6013 51.1039 44.9262 51.1039 44.2613 51.1039ZM25.7527 27.8095C33.5511 27.8095 41.3394 27.8095 49.1378 27.8095C49.2889 27.8095 49.44 27.7995 49.5912 27.8095C49.8934 27.8196 50.0143 27.6886 50.0042 27.3864C49.9841 27.0337 50.0042 26.6811 50.0042 26.3285C50.0042 25.5325 50.0042 25.5325 49.2184 25.5325C33.8131 25.5325 18.4078 25.5325 3.00247 25.5325C1.51131 25.5325 1.51131 25.5325 1.51131 27.0337C1.51131 27.8095 1.51131 27.8095 2.26697 27.8095C10.0956 27.8095 17.9242 27.8095 25.7527 27.8095ZM4.9168 29.341C4.9168 29.603 4.9168 29.8045 4.9168 29.9959C4.9168 34.3686 4.9168 38.7414 4.9168 43.1141C4.9168 44.978 4.9168 46.8319 4.9168 48.6959C4.9168 49.4213 5.06793 49.5624 5.80343 49.5724C6.07547 49.5724 6.33743 49.5724 6.60947 49.5724C7.39535 49.5724 7.54648 49.4213 7.54648 48.6354C7.54648 42.3887 7.54648 36.1419 7.54648 29.8851C7.54648 29.7037 7.53641 29.5324 7.52633 29.341C6.63969 29.341 5.81351 29.341 4.9168 29.341ZM3.42564 22.3688C3.24428 23.5376 3.6473 24.0313 4.72537 24.0313C11.355 24.0313 17.9947 24.0313 24.6243 24.0313C25.3397 24.0313 25.6621 23.7492 25.7729 23.054C25.8736 22.4192 25.8333 22.3688 25.1885 22.3688C18.1156 22.3688 11.0527 22.3688 3.97979 22.3688C3.8085 22.3688 3.62715 22.3688 3.42564 22.3688ZM30.8509 4.86784C33.0776 7.10458 35.2841 9.31109 37.5007 11.5277C37.9641 9.94584 38.4478 8.31363 38.9112 6.68141C38.9515 6.55043 38.8609 6.3187 38.7601 6.20787C37.9138 5.33131 37.0473 4.46482 36.1707 3.61849C36.0599 3.50766 35.8382 3.41698 35.6972 3.45728C34.0549 3.92075 32.4327 4.40437 30.8509 4.86784ZM35.002 23.991C38.2059 23.991 41.3495 23.991 44.4729 23.991C44.6441 22.9532 44.4729 22.7315 43.5056 22.7315C42.4678 22.7315 41.4301 22.7315 40.3923 22.7315C38.8306 22.7315 37.279 22.7315 35.7173 22.7315C35.1732 22.7315 35.002 22.9028 34.9919 23.4469C35.002 23.6182 35.002 23.7794 35.002 23.991ZM39.8382 5.13987C40.4225 4.58573 41.0774 4.08196 40.755 3.23562C40.4528 2.42959 39.8583 1.79484 39.0019 1.57318C38.1959 1.37167 37.7324 1.98627 37.2488 2.53034C37.3596 2.65125 37.4402 2.752 37.5309 2.84268C38.2966 3.59834 39.0523 4.35399 39.8382 5.13987ZM47.3141 13.4622C47.3242 14.1775 47.9186 14.772 48.634 14.782C49.3594 14.7921 49.9841 14.1574 49.974 13.4319C49.964 12.7065 49.3292 12.0919 48.6038 12.1221C47.8884 12.1524 47.304 12.7569 47.3141 13.4622Z" fill="black"/>
<path d="M19.3145 51.1038C18.6797 50.5396 18.6696 50.2273 19.2339 49.6127C19.788 49.0081 20.3522 48.4137 20.8862 47.789C21.5411 47.0233 22.3572 46.6606 23.3648 46.6908C23.8786 46.7009 24.3925 46.6908 24.9365 46.6908C24.9365 44.4641 24.9365 42.2778 24.9365 40.0309C24.6846 40.0309 24.463 40.0309 24.2313 40.0309C22.5688 40.0108 20.9064 40.0914 19.2641 39.9403C17.5311 39.7791 16.3019 38.2577 16.2415 36.5247C16.2112 35.5675 16.8863 34.8119 17.8434 34.7414C18.0953 34.7212 18.3472 34.7313 18.5991 34.7313C23.4756 34.7313 28.3521 34.7313 33.2286 34.7313C34.7198 34.7313 35.4754 35.6683 35.1631 37.1292C34.7903 38.8622 33.3797 40.0209 31.5561 40.041C30.0649 40.0612 28.5738 40.041 27.0826 40.041C26.9012 40.041 26.7199 40.041 26.5083 40.041C26.5083 42.2778 26.5083 44.4641 26.5083 46.7009C27.0826 46.7009 27.6367 46.7109 28.1808 46.7009C29.1279 46.6908 29.9037 47.0334 30.5284 47.7487C31.0926 48.3935 31.677 49.0081 32.2513 49.6429C32.8054 50.2474 32.755 50.6403 32.08 51.1139C31.949 51.1139 31.808 51.1139 31.677 51.1139C31.4755 50.9426 31.2538 50.7814 31.0825 50.59C30.5082 49.9854 29.9642 49.3406 29.3798 48.7462C29.1682 48.5346 28.876 48.2827 28.5939 48.2626C27.9088 48.192 27.2035 48.2424 26.468 48.2424C26.468 48.8772 26.4478 49.4817 26.4781 50.0761C26.4982 50.5396 26.3471 50.8822 25.9441 51.1139C25.8131 51.1139 25.672 51.1139 25.5411 51.1139C25.0877 50.9023 24.9365 50.5396 24.9567 50.056C24.9768 49.4515 24.9668 48.8369 24.9668 48.2021C24.4126 48.2021 23.9391 48.2323 23.4756 48.192C22.8207 48.1517 22.3371 48.4036 21.9038 48.8973C21.2389 49.663 20.5134 50.3784 19.8081 51.1139C19.6469 51.1038 19.4757 51.1038 19.3145 51.1038ZM25.7426 36.2325C23.2439 36.2325 20.7452 36.2426 18.2565 36.2224C17.8031 36.2224 17.7024 36.3635 17.783 36.7867C17.9643 37.764 18.7805 38.5096 19.8384 38.5196C23.7779 38.5398 27.7173 38.5398 31.6468 38.5196C32.6341 38.5196 33.42 37.8446 33.6618 36.9176C33.8029 36.3433 33.7324 36.2325 33.1379 36.2325C30.6694 36.2325 28.211 36.2325 25.7426 36.2325Z" fill="black"/>
</svg>
