<svg width="22" height="22" viewBox="0 0 22 22" fill="none" xmlns="http://www.w3.org/2000/svg">
<path d="M6 8C5.45 8 4.97917 7.80417 4.5875 7.4125C4.19583 7.02083 4 6.55 4 6C4 5.45 4.19583 4.97917 4.5875 4.5875C4.97917 4.19583 5.45 4 6 4C6.55 4 7.02083 4.19583 7.4125 4.5875C7.80417 4.97917 8 5.45 8 6C8 6.55 7.80417 7.02083 7.4125 7.4125C7.02083 7.80417 6.55 8 6 8ZM4 21C3.71667 21 3.47917 20.9042 3.2875 20.7125C3.09583 20.5208 3 20.2833 3 20C2.45 20 1.97917 19.8042 1.5875 19.4125C1.19583 19.0208 1 18.55 1 18V12H4V11.25C4 10.6167 4.21667 10.0833 4.65 9.65C5.08333 9.21667 5.61667 9 6.25 9C6.58333 9 6.89167 9.06667 7.175 9.2C7.45833 9.33333 7.71667 9.51667 7.95 9.75L9.35 11.3C9.48333 11.4333 9.6125 11.5583 9.7375 11.675C9.8625 11.7917 10 11.9 10.15 12H17V3.85C17 3.61667 16.9167 3.41667 16.75 3.25C16.5833 3.08333 16.3833 3 16.15 3C16.05 3 15.9542 3.02083 15.8625 3.0625C15.7708 3.10417 15.6833 3.16667 15.6 3.25L14.35 4.5C14.4333 4.78333 14.45 5.0625 14.4 5.3375C14.35 5.6125 14.25 5.86667 14.1 6.1L11.35 3.3C11.5833 3.15 11.8333 3.05417 12.1 3.0125C12.3667 2.97083 12.6333 3 12.9 3.1L14.15 1.85C14.4167 1.58333 14.7208 1.375 15.0625 1.225C15.4042 1.075 15.7667 1 16.15 1C16.95 1 17.625 1.275 18.175 1.825C18.725 2.375 19 3.05 19 3.85V12H21V18C21 18.55 20.8042 19.0208 20.4125 19.4125C20.0208 19.8042 19.55 20 19 20C19 20.2833 18.9042 20.5208 18.7125 20.7125C18.5208 20.9042 18.2833 21 18 21H4Z" fill="white"/>
</svg>
