<svg width="27" height="21" viewBox="0 0 27 21" fill="none" xmlns="http://www.w3.org/2000/svg">
<path d="M23.5098 5.32814C23.5098 5.5788 23.5098 5.77932 23.5098 6.02997C23.5098 12.9981 18.2461 20.9688 8.57096 20.9688C5.56315 20.9688 2.80599 20.1166 0.5 18.6127C0.901042 18.6628 1.30208 18.7129 1.75326 18.7129C4.20964 18.7129 6.4655 17.8607 8.27018 16.4571C5.96419 16.4069 4.00911 14.903 3.35742 12.7975C3.70833 12.8477 4.00911 12.8978 4.36003 12.8978C4.8112 12.8978 5.3125 12.7975 5.71354 12.6973C3.30729 12.196 1.5026 10.0905 1.5026 7.53387V7.48374C2.20443 7.88479 3.05664 8.08531 3.90885 8.13544C2.45508 7.18296 1.55273 5.5788 1.55273 3.77411C1.55273 2.7715 1.80339 1.86916 2.25456 1.11721C4.86133 4.27541 8.77148 6.38088 13.1328 6.63153C13.0326 6.23049 12.9824 5.82945 12.9824 5.42841C12.9824 2.52085 15.3385 0.164733 18.2461 0.164733C19.75 0.164733 21.1035 0.766295 22.1061 1.81903C23.2591 1.56838 24.4121 1.11721 25.4147 0.515644C25.0137 1.7689 24.2116 2.7715 23.1087 3.4232C24.1615 3.32294 25.2142 3.02215 26.1165 2.62111C25.4147 3.67385 24.5124 4.57619 23.5098 5.32814Z" fill="white"/>
</svg>
