<svg width="58" height="42" viewBox="0 0 58 42" fill="none" xmlns="http://www.w3.org/2000/svg">
<path d="M35.0619 41.2028C33.3813 40.8667 31.9851 40.0006 30.6276 38.9663C28.4041 37.2728 25.6763 37.415 23.5949 39.3025C20.9706 41.707 17.6869 41.6682 14.8945 39.3929C14.623 39.1732 14.3515 38.9663 14.0801 38.7595C12.8261 37.777 11.5591 37.6994 10.15 38.5397C7.71958 39.9876 5.04352 40.7504 2.21233 40.996C1.54008 41.0477 1.06176 40.7116 0.997116 40.1298C0.91955 39.5093 1.29446 39.0827 1.99256 38.9534C3.36291 38.6819 4.74618 38.5009 6.07774 38.1002C7.11197 37.7899 8.15912 37.3504 9.05114 36.7557C11.404 35.2173 14.1059 36.0059 15.5926 37.3891C16.3683 38.1002 17.2086 38.6561 18.2299 38.9534C19.2383 39.2507 20.182 39.1344 21.0611 38.5526C21.4877 38.2682 21.9143 37.958 22.3021 37.6348C25.2238 35.2302 28.96 35.1397 31.9851 37.415C32.3341 37.6735 32.6702 37.9192 33.0322 38.1648C35.0748 39.5352 36.8718 39.4059 38.7205 37.764C39.1729 37.3633 39.5995 36.9367 40.0649 36.5618C41.9136 35.1397 43.9433 35.1656 45.6239 36.7815C47.4079 38.488 49.4893 39.1861 51.9068 39.0051C51.9973 39.0051 52.0749 38.9922 52.1654 38.9922C52.8376 38.9922 53.2772 39.3671 53.3289 39.9488C53.3677 40.5047 52.954 40.996 52.3076 41.0606C49.5152 41.3192 46.9684 40.7116 44.8224 38.7983C44.6155 38.6173 44.4216 38.4104 44.2018 38.2424C43.1418 37.4408 42.3015 37.4538 41.2931 38.2941C40.8923 38.6302 40.5303 38.9922 40.1554 39.3412C39.1083 40.3237 37.8026 40.8021 36.471 41.2158C36.0056 41.2028 35.5402 41.2028 35.0619 41.2028Z" fill="black"/>
<path d="M40.7759 17.907C41.9394 12.9039 46.2832 10.9389 49.9547 11.6887C53.6649 12.4515 56.3798 16.0454 56.0178 19.7557C55.798 22.0568 54.7897 23.9314 52.941 25.3276C51.3638 26.5299 50.2132 26.7755 46.6581 26.7626C47.0847 27.4477 47.395 28.0812 48.3258 28.288C49.0109 28.4432 49.709 28.9086 50.2391 29.3998C52.0102 31.0546 54.0657 31.7139 56.4444 31.4683C57.1425 31.4036 57.6467 31.7398 57.7372 32.3344C57.8406 32.955 57.4528 33.4592 56.703 33.5367C53.7942 33.847 51.2216 33.1101 49.0239 31.1322C48.7394 30.8736 48.4292 30.628 48.106 30.4341C47.3691 29.9945 46.6322 30.0462 45.947 30.5763C45.5721 30.8736 45.2102 31.1709 44.874 31.5071C41.9782 34.2736 38.6687 34.4158 35.566 31.869C34.3896 30.9124 33.0709 30.3306 31.5584 30.3565C30.0717 30.3823 28.8306 31.0158 27.7447 32.0112C26.801 32.8774 25.7021 33.4204 24.4352 33.6272C22.4572 33.9375 20.8283 33.1489 19.3158 31.9983C18.8374 31.6363 18.372 31.2485 17.8549 30.9382C16.8853 30.3565 15.877 30.3565 14.9203 30.9382C12.4382 32.4508 9.72333 33.2523 6.85336 33.5755C6.06476 33.666 5.53472 33.3428 5.44423 32.6964C5.35373 32.063 5.78035 31.6105 6.58187 31.52C9.21914 31.2356 11.6884 30.4599 13.9766 29.0896C14.623 28.7017 15.4762 28.65 16.226 28.4302C16.5234 28.3397 16.8595 28.3139 17.0922 28.1329C20.5568 25.5473 23.9956 22.9618 27.4473 20.3633C28.4686 19.5876 28.6755 18.8766 28.1972 17.6614C26.5941 13.615 24.9652 9.5815 23.3751 5.52217C22.4701 3.22102 23.6336 0.829379 25.9219 0.182989C26.3356 0.066639 26.7622 0.0149277 27.1888 0.0149277C32.9934 0.00199994 38.798 -0.0109279 44.6026 0.0149277C47.0847 0.0278555 48.8946 1.59212 49.2695 3.97084C49.6702 6.47883 47.7569 8.98682 45.2231 9.1161C42.9349 9.23245 40.6208 9.16781 38.3196 9.18074C37.544 9.18074 36.7683 9.16781 35.9926 9.18074C35.3979 9.19367 35.204 9.51686 35.5272 10.021C37.2725 12.6195 38.9919 15.2051 40.7759 17.907ZM45.3136 28.4432C45.1972 28.2622 45.055 28.0295 44.8999 27.7968C41.2542 22.3025 37.6215 16.8081 33.9759 11.3268C33.3424 10.383 33.0709 9.42637 33.6398 8.37922C34.2086 7.31914 35.1652 7.04765 36.3029 7.06058C39.1212 7.08644 41.9394 7.08644 44.7448 7.06058C46.1668 7.04765 47.2527 5.96172 47.2786 4.57844C47.3045 3.19517 46.1797 2.04459 44.7448 2.04459C38.8755 2.03167 33.0063 2.04459 27.1371 2.04459C26.4002 2.04459 25.8831 2.38072 25.4823 2.98832C25.0299 3.69935 25.1203 4.39745 25.4177 5.13434C26.969 8.99975 28.5074 12.8652 30.0458 16.7177C31.0154 19.1352 30.563 20.7123 28.4686 22.2766C25.5211 24.4743 22.5865 26.6721 19.6519 28.8827C19.4838 28.9991 19.3287 29.1413 19.1606 29.2705C19.7812 29.7489 20.3112 30.2272 20.9059 30.615C23.3751 32.2698 24.7842 31.8432 26.3097 30.6021C26.5295 30.4211 26.7492 30.2531 26.969 30.085C28.9987 28.5207 31.2352 27.939 33.7432 28.6112C35.1911 28.9991 36.3546 29.8782 37.544 30.7314C39.4185 32.0888 41.1767 32.0242 43.2193 30.3306C43.9174 29.7101 44.5896 29.0766 45.3136 28.4432ZM48.2999 13.5891C45.1067 13.6408 42.728 16.0971 42.7797 19.3032C42.8314 22.3671 45.3653 24.8105 48.455 24.7587C51.5448 24.707 54.014 22.1861 53.9752 19.1222C53.9364 16.0196 51.4026 13.5374 48.2999 13.5891Z" fill="black"/>
<path d="M8.17206 17.5578C5.93555 17.5578 3.71197 17.5578 1.47546 17.5578C1.24276 17.5578 0.997131 17.5578 0.777358 17.5061C0.247318 17.3769 -0.0241662 17.0019 0.00168944 16.4719C0.027545 15.9677 0.311957 15.6316 0.816141 15.5411C1.02299 15.5023 1.24276 15.5023 1.46253 15.5023C5.92262 15.5023 10.3956 15.5023 14.8557 15.5023C14.8945 15.5023 14.9462 15.5023 14.985 15.5023C15.8512 15.5152 16.3424 15.8772 16.3554 16.5236C16.3554 17.17 15.8641 17.5578 15.0109 17.5578C12.7227 17.5708 10.4474 17.5578 8.17206 17.5578Z" fill="black"/>
<path d="M13.1751 7.42262C14.4679 7.42262 15.7477 7.40969 17.0405 7.42262C17.8033 7.42262 18.2687 7.83631 18.2557 8.45684C18.2428 9.06445 17.7645 9.47814 17.0147 9.47814C14.442 9.49106 11.8565 9.49106 9.28383 9.47814C8.52109 9.47814 8.08154 9.07737 8.08154 8.43098C8.08154 7.79752 8.52109 7.42262 9.30968 7.42262C10.5895 7.40969 11.8823 7.42262 13.1751 7.42262Z" fill="black"/>
<path d="M9.10287 13.5118C7.81009 13.5118 6.53024 13.5118 5.23746 13.5118C4.48765 13.5118 4.02225 13.0981 4.03517 12.4775C4.0481 11.8699 4.48765 11.4692 5.19868 11.4562C7.79717 11.4433 10.3957 11.4433 12.9941 11.4562C13.7181 11.4562 14.1447 11.8699 14.1576 12.4775C14.1706 13.111 13.731 13.5118 12.9554 13.5118C11.6884 13.5247 10.3957 13.5118 9.10287 13.5118Z" fill="black"/>
<path d="M18.8246 13.5114C18.2946 13.5114 17.7516 13.5243 17.2216 13.5114C16.6269 13.4855 16.2391 13.1106 16.2132 12.5677C16.1874 11.9859 16.5493 11.5076 17.1569 11.4817C18.2946 11.4429 19.4322 11.4429 20.5699 11.4817C21.1904 11.4947 21.5653 11.9601 21.5524 12.5289C21.5395 13.0977 21.1387 13.4985 20.5052 13.5114C19.9493 13.5243 19.3805 13.5114 18.8246 13.5114Z" fill="black"/>
</svg>
